<?xml version="1.0" encoding="UTF-8"?>
<svg id="Calque_1" xmlns="http://www.w3.org/2000/svg" version="1.1" viewBox="0 0 100 85">
  <!-- Generator: Adobe Illustrator 29.1.0, SVG Export Plug-In . SVG Version: 2.1.0 Build 142)  -->
  <defs>
    <style>
      .st0 {
        fill: #fed5b7;
      }

      .st1 {
        fill: #ec883d;
      }

      .st2 {
        fill: #9d5723;
      }

      .st3 {
        fill: #233739;
      }
    </style>
  </defs>
  <path class="st2" d="M86.4,84.9H22.3c-5.2-4.9-8.4-7.9-13.6-12.8l-3.7-51.2,5.5-6.8L79.1,5c6,4.8,9.3,7.4,15.3,12.2l5.5,52.3c-5.4,6.1-8.2,9.2-13.6,15.3h0Z"/>
  <g>
    <path class="st1" d="M89.6,12.3c-6-4.8-9.3-7.4-15.3-12.2L5.7,9.1C3.5,11.7,2.3,13.3.2,15.9l3.7,51.2c5.2,4.9,8.4,7.9,13.6,12.8h64.1c5.4-6.1,8.2-9.2,13.6-15.3l-5.5-52.3ZM69.4,37.4l-1.5,14.1,1.3,2.2-5.7,10h-11.4l-5.7-10,5.7-10h9.7l.8-7.4,1.8-11.5h-19.5l-2.6,2.6v11.2l-5.4,11.2,4.4,7.7-6,10.5h-11.9l-6-10.5,6-10.5h7.2l4.8-10.1v-12.5l6.6-6.7h30.4l-3.1,19.5h0Z"/>
    <rect class="st0" x="73.2" y="70.1" width="5" height="5"/>
    <rect class="st0" x="83.2" y="60.1" width="5" height="5"/>
    <rect class="st0" x="83.2" y="55.1" width="5" height="5"/>
    <rect class="st0" x="83.2" y="50.1" width="5" height="5"/>
    <rect class="st0" x="78.2" y="65.1" width="5" height="5"/>
    <rect class="st1" x="17.2" y="9.1" width="56" height="61"/>
  </g>
  <path class="st3" d="M22.6,31.2c2.7-3.5,5.5-7,8.2-10.5,1.5,1.2,3.1,2.5,4.6,3.7-2.6,3.5-5.2,7-7.8,10.6-1.7-1.3-3.4-2.6-5.1-3.8Z"/>
  <path class="st3" d="M30.8,20.7c4.9-1.2,9.8-2.4,14.6-3.6.4,2,.8,3.9,1.2,5.9-4.8,1.3-9.7,2.6-14.5,3.9-.4-2.1-.9-4.1-1.3-6.2Z"/>
  <path class="st3" d="M45.4,17.1c4.8.3,9.7.7,14.5,1-.2,2-.4,4-.7,6-4.8-.2-9.6-.4-14.3-.6.2-2.1.3-4.2.5-6.3Z"/>
  <path class="st3" d="M60,18c4.1,2.7,8.2,5.4,12.3,8.1-1.2,1.6-2.4,3.2-3.6,4.8-4-2.6-8-5.2-12.1-7.8,1.1-1.7,2.3-3.4,3.4-5.1Z"/>
  <path class="st3" d="M72.3,26.1c1.9,4.5,3.8,8.9,5.8,13.4-1.9.7-3.8,1.4-5.7,2.1-2-4.4-3.9-8.7-5.9-13.1,1.9-.8,3.8-1.6,5.8-2.4Z"/>
  <path class="st3" d="M78,39.5c-1.2,4.7-2.3,9.4-3.5,14.2-1.9-.6-3.9-1.1-5.8-1.7,1-4.7,2.1-9.3,3.1-14,2.1.5,4.1,1,6.2,1.6Z"/>
  <path class="st3" d="M74.5,53.7c-2.1,3.1-4.2,6.3-6.3,9.4-1.6-1.2-3.3-2.3-4.9-3.5,2-3.3,4.1-6.6,6.1-9.9,1.7,1.3,3.4,2.6,5.1,4Z"/>
  <path class="st3" d="M68.2,63.1c-3.6,1.6-7.2,3.3-10.8,4.9-.8-1.8-1.6-3.7-2.4-5.5,3.5-1.8,6.9-3.5,10.4-5.3,1,2,1.9,4,2.9,5.9Z"/>
  <path class="st3" d="M57.4,67.9c-5,0-9.9-.1-14.9-.2.1-2.1.2-4.2.3-6.3,4.9,0,9.8.1,14.7.2,0,2.1,0,4.2,0,6.3Z"/>
  <path class="st3" d="M42.5,67.7c-4.7-1.6-9.4-3.2-14.1-4.7.7-1.9,1.5-3.8,2.2-5.6,4.7,1.5,9.3,3,14,4.4-.7,2-1.4,4-2.1,5.9Z"/>
  <path class="st3" d="M28.4,63l-5.7-13.6c1.9-.8,3.7-1.5,5.6-2.3,2.1,4.4,4.3,8.7,6.4,13.1-2.1.9-4.2,1.8-6.3,2.7Z"/>
  <polygon class="st3" points="21.7 37.2 35.4 49.1 18.3 55 21.7 37.2"/>
</svg>