<svg width="72" height="58" viewBox="0 0 72 58" fill="none" xmlns="http://www.w3.org/2000/svg">
<path d="M59.6276 57.9956L16.6879 57.9956C13.339 54.94 11.3367 53.1101 7.98776 50.0545L5.47827 16.4117C7.78126 13.6383 9.1415 12.0025 11.449 9.22902L59.9104 3.07367C63.1517 5.58255 64.9339 6.96265 68.1752 9.47594L72 44.4724C67.0573 49.8781 64.5703 52.5942 59.6276 58L59.6276 57.9956Z" fill="#398839"/>
<path d="M54.1494 54.9219L11.2097 54.9219C7.86068 51.8663 5.85847 50.0365 2.50949 46.9808L-2.98568e-09 13.3381C2.30299 10.5646 3.66322 8.92878 5.9707 6.15535L54.4322 -1.15348e-08C57.6734 2.50888 59.4556 3.88898 62.6969 6.40227L66.5217 41.3987C61.5791 46.8045 59.092 49.5206 54.1494 54.9264L54.1494 54.9219Z" fill="#5DD85D"/>
<path d="M16.0271 14.8448L36.2846 28.2053L13.6067 41.5658L16.0271 14.8448Z" fill="white"/>
<path d="M35.5199 14.8448L54.4269 28.2053L33.2609 41.5658L35.5199 14.8448Z" fill="white"/>
<rect x="50.0869" y="46.1066" width="3.91304" height="3.84222" fill="#D1FFD1"/>
<rect x="57.9131" y="38.4221" width="3.91304" height="3.84222" fill="#D1FFD1"/>
<rect x="57.9131" y="34.5799" width="3.91304" height="3.84222" fill="#D1FFD1"/>
<rect x="57.9131" y="30.7377" width="3.91304" height="3.84222" fill="#D1FFD1"/>
<rect x="54" y="42.2643" width="3.91304" height="3.84223" fill="#D1FFD1"/>
</svg>
