<svg width="100" height="85" viewBox="0 0 100 85" fill="none" xmlns="http://www.w3.org/2000/svg">
<g clip-path="url(#clip0_408_904)">
<mask id="mask0_408_904" style="mask-type:luminance" maskUnits="userSpaceOnUse" x="0" y="0" width="100" height="85">
<path d="M100 0H0V85H100V0Z" fill="white"/>
</mask>
<g mask="url(#mask0_408_904)">
<path d="M89.6002 12.3C83.6002 7.50001 80.3002 4.90001 74.3002 0.100006L5.7002 9.10001C3.5002 11.7 2.3002 13.3 0.200195 15.9L3.9002 67.1C9.10019 72 12.3002 75 17.5002 79.9H81.6002C87.0002 73.8 89.8002 70.7 95.2002 64.6L89.7002 12.3H89.6002ZM69.4002 37.4L67.9002 51.5L69.2002 53.7L63.5002 63.7H52.1002L46.4002 53.7L52.1002 43.7H61.8002L62.6002 36.3L64.4002 24.8H44.9002L42.3002 27.4V38.6L36.9002 49.8L41.3002 57.5L35.3002 68H23.4002L17.4002 57.5L23.4002 47H30.6002L35.4002 36.9V24.4L42.0002 17.7H72.4002L69.3002 37.2L69.4002 37.4Z" fill="#784C2B"/>
<path d="M86.4 84.9H22.3C17.1 80 13.9 77 8.7 72.1L5 20.9L10.5 14.1L79.1 5C85.1 9.8 88.4 12.4 94.4 17.2L99.9 69.5C94.5 75.6 91.7 78.7 86.3 84.8L86.4 84.9Z" fill="#9D5723"/>
</g>
<path d="M83 75H78V80H83V75Z" fill="#DE6E24"/>
<path d="M93 65H88V70H93V65Z" fill="#DE6E24"/>
<path d="M93 60H88V65H93V60Z" fill="#DE6E24"/>
<path d="M93 55H88V60H93V55Z" fill="#DE6E24"/>
<path d="M88 70H83V75H88V70Z" fill="#DE6E24"/>
<path d="M27.3002 35.1C30.0002 31.6 32.8002 28.1 35.5002 24.6C37.0002 25.8 38.6002 27.1 40.1002 28.3C37.5002 31.8 34.9002 35.3 32.3002 38.9C30.6002 37.6 28.9002 36.3 27.2002 35.1H27.3002Z" fill="#FED5B7"/>
<path d="M35.5 24.6C40.4 23.4 45.3 22.2 50.1 21C50.5 23 50.9 24.9 51.3 26.9C46.5 28.2 41.6 29.5 36.8 30.8C36.4 28.7 35.9 26.7 35.5 24.6Z" fill="#FED5B7"/>
<path d="M50.1001 21C54.9001 21.3 59.8001 21.7 64.6001 22C64.4001 24 64.2001 26 63.9001 28C59.1001 27.8 54.3001 27.6 49.6001 27.4C49.8001 25.3 49.9001 23.2 50.1001 21.1V21Z" fill="#FED5B7"/>
<path d="M64.7003 21.9C68.8003 24.6 72.9003 27.3 77.0003 30C75.8003 31.6 74.6003 33.2 73.4003 34.8C69.4003 32.2 65.4003 29.6 61.3003 27C62.4003 25.3 63.6003 23.6 64.7003 21.9Z" fill="#FED5B7"/>
<path d="M77.0002 30C78.9002 34.5 80.8002 38.9 82.8002 43.4C80.9002 44.1 79.0002 44.8 77.1002 45.5C75.1002 41.1 73.2002 36.8 71.2002 32.4C73.1002 31.6 75.0002 30.8 77.0002 30Z" fill="#FED5B7"/>
<path d="M82.7004 43.4C81.5004 48.1 80.4004 52.8 79.2004 57.6C77.3004 57 75.3004 56.5 73.4004 55.9C74.4004 51.2 75.5004 46.6 76.5004 41.9C78.6004 42.4 80.6004 42.9 82.7004 43.5V43.4Z" fill="#FED5B7"/>
<path d="M79.2 57.6C77.1 60.7 75 63.9 72.9 67C71.3 65.8 69.6 64.7 68 63.5C70 60.2 72.1 56.9 74.1 53.6C75.8 54.9 77.5 56.2 79.2 57.6Z" fill="#FED5B7"/>
<path d="M72.9002 67C69.3002 68.6 65.7002 70.3 62.1002 71.9C61.3002 70.1 60.5002 68.2 59.7002 66.4C63.2002 64.6 66.6002 62.9 70.1002 61.1C71.1002 63.1 72.0002 65.1 73.0002 67H72.9002Z" fill="#FED5B7"/>
<path d="M62.1002 71.8C57.1002 71.8 52.2002 71.7 47.2002 71.6C47.3002 69.5 47.4002 67.4 47.5002 65.3C52.4002 65.3 57.3002 65.4 62.2002 65.5C62.2002 67.6 62.2002 69.7 62.2002 71.8H62.1002Z" fill="#FED5B7"/>
<path d="M47.2001 71.6C42.5001 70 37.8001 68.4 33.1001 66.9C33.8001 65 34.6001 63.1 35.3001 61.3C40.0001 62.8 44.6001 64.3 49.3001 65.7C48.6001 67.7 47.9001 69.7 47.2001 71.6Z" fill="#FED5B7"/>
<path d="M33.1004 66.9L27.4004 53.3C29.3004 52.5 31.1004 51.8 33.0004 51C35.1004 55.4 37.3004 59.7 39.4004 64.1C37.3004 65 35.2004 65.9 33.1004 66.8V66.9Z" fill="#FED5B7"/>
<path d="M26.4 41.1L40.1 53L23 58.9L26.4 41.1Z" fill="#FED5B7"/>
</g>
<defs>
<clipPath id="clip0_408_904">
<rect width="100" height="85" fill="white"/>
</clipPath>
</defs>
</svg>
