<svg width="100" height="85" viewBox="0 0 100 85" fill="none" xmlns="http://www.w3.org/2000/svg">
<path d="M86.4268 84.8865H22.3277C17.0842 79.954 13.947 76.9946 8.70989 72.0621L5 20.8162L10.4917 13.9946L79.1279 5.00012C85.1413 9.80362 88.444 12.4407 94.4574 17.2442L100 69.5669C94.572 75.6857 91.8484 78.7612 86.4204 84.88L86.4268 84.8865Z" fill="#398839"/>
<path d="M89.4567 12.2317C83.4417 7.432 80.1399 4.79975 74.1291 0L5.49321 8.98262C3.37273 11.6149 2.12048 13.1655 0 15.7978L3.70667 66.9894C8.94943 71.9201 12.0842 74.8735 17.327 79.8H81.4214C86.8478 73.6862 89.5736 70.6146 95 64.5008L89.4567 12.2317ZM69.1994 37.3459L67.7009 51.4663L68.974 53.7014L63.2888 63.6685H51.9225L46.2373 53.7014L51.9225 43.7343H61.6108L62.3955 36.3319L64.2197 24.7888H44.6803L42.0798 27.4211V38.6134L36.7077 49.8481L41.1031 57.5547L35.1298 68.0246H23.1875L17.2143 57.5547L23.1875 47.0848H30.388L35.2008 37.0163V24.5395L41.8294 17.83H72.2758L69.1911 37.3417L69.1994 37.3459Z" fill="#5DD85D"/>
<rect x="73" y="70" width="5" height="5" fill="#BCFABC"/>
<rect x="83" y="60" width="5" height="5" fill="#BCFABC"/>
<rect x="83" y="55" width="5" height="5" fill="#BCFABC"/>
<rect x="83" y="50" width="5" height="5" fill="#BCFABC"/>
<rect x="78" y="65" width="5" height="5" fill="#BCFABC"/>
<rect x="17" y="9" width="56" height="61" fill="#5DD85D"/>
<path d="M50.9294 38L72 23H22L43.0706 38C45.9735 38 48.0305 38 50.9294 38Z" fill="#233739"/>
<path d="M52.2297 41.5589C48.3643 41.5589 45.6242 41.5589 41.7588 41.5589L20 25.012V52.3189C21.3874 53.7547 22.1659 54.5603 23.5571 56H70.4429C71.8303 54.5643 72.6088 53.7587 74 52.3189V25L52.2297 41.5589Z" fill="#233739"/>
</svg>
