<svg width="90" height="76" viewBox="0 0 90 76" fill="none" xmlns="http://www.w3.org/2000/svg">
<path d="M74.5674 75.9943H20.9874C16.8085 72.0445 14.3102 69.6791 10.1313 65.7293L7 22.2413C9.87366 18.6563 11.571 16.5417 14.4502 12.9567L74.9147 5C78.9591 8.24308 81.183 10.0271 85.2274 13.2758L90 58.5136C83.8326 65.5013 80.7292 69.0123 74.5618 76L74.5674 75.9943Z" fill="#398839"/>
<path d="M67.5674 70.9943H13.9874C9.80853 67.0445 7.31018 64.6791 3.13133 60.7293L0 17.2413C2.87366 13.6563 4.57096 11.5417 7.45022 7.95665L67.9147 0C71.9591 3.24308 74.183 5.02705 78.2274 8.27583L83 53.5136C76.8326 60.5013 73.7292 64.0123 67.5618 71L67.5674 70.9943Z" fill="#5DD85D"/>
<rect x="62" y="59" width="5" height="5" fill="#BCFABC"/>
<rect x="72" y="49" width="5" height="5" fill="#BCFABC"/>
<rect x="72" y="44" width="5" height="5" fill="#BCFABC"/>
<rect x="72" y="39" width="5" height="5" fill="#BCFABC"/>
<rect x="67" y="54" width="5" height="5" fill="#BCFABC"/>
<rect x="31.9087" y="33.7352" width="6.5366" height="34.8619" transform="rotate(-45.8909 31.9087 33.7352)" fill="#233739"/>
<path d="M32.2326 14.0489L23.409 23.1513L22.0485 30.2465L17.0671 29.6936L13 33.8892L21.1068 41.7476L24.0709 38.6898L24.4663 32.5902L31.9795 33.8041L36.5291 29.1108L34.8544 25.0044L40.0934 19.5999L45.077 20.2929L46.8693 18.444L42.3892 14.1011L32.2326 14.0489Z" fill="#233739"/>
</svg>
