<svg width="102" height="83" viewBox="0 0 102 83" fill="none" xmlns="http://www.w3.org/2000/svg">
<mask id="mask0_69_559" style="mask-type:luminance" maskUnits="userSpaceOnUse" x="6" y="4" width="96" height="79">
<path d="M88.1435 83H23.8034C18.5444 78.1182 15.3913 75.1962 10.1323 70.3144L6.41406 19.6373C8.54386 17.0301 9.79913 15.4978 11.9289 12.8906L80.8201 4C86.8585 8.75116 90.1722 11.3584 96.2046 16.1095L101.773 67.8556C96.3236 73.9074 93.593 76.9482 88.1435 83Z" fill="white"/>
</mask>
<g mask="url(#mask0_69_559)">
<path d="M112.993 6.57751H-6.63232V81.4677H112.993V6.57751Z" fill="#233739"/>
<path d="M64.4305 4.04755H41.9308L41.9307 81.5H64.4304L64.4305 4.04755Z" fill="#233739"/>
<path d="M-12.189 32.8931L-12.189 55.1582L118.544 55.1582V32.8931L-12.189 32.8931Z" fill="#233739"/>
<path d="M-20.4335 78.5141L-13.5503 90.4156L126.783 9.53301L119.9 -2.36855L-20.4335 78.5141Z" fill="#233739"/>
<path d="M-13.5446 -2.36848L-20.4277 9.53308L119.906 90.4157L126.789 78.5142L-13.5446 -2.36848Z" fill="#233739"/>
<path d="M59.4984 6.57751H46.8564V81.4677H59.4984V6.57751Z" fill="#233739"/>
<path d="M116.562 11.1449L113.4 5.67761L-10.2041 76.9184L-7.04209 82.3857L116.562 11.1449Z" fill="#233739"/>
<path d="M113.398 82.3827L116.56 76.9154L-7.04488 5.67467L-10.2069 11.142L113.398 82.3827Z" fill="#233739"/>
<path d="M-6.63818 37.7154L-6.63818 50.3357L112.987 50.3357V37.7154L-6.63818 37.7154Z" fill="#233739"/>
<path d="M112.993 32.893H59.4985V37.7154H112.993V32.893Z" fill="#233739"/>
<path d="M46.8625 32.893H-6.63232V37.7154H46.8625V32.893Z" fill="#233739"/>
<path d="M46.8625 50.3357H-6.63232V55.1581H46.8625V50.3357Z" fill="#233739"/>
<path d="M112.993 50.3357H59.4985V55.1581H112.993V50.3357Z" fill="#233739"/>
</g>
<mask id="mask1_69_559" style="mask-type:alpha" maskUnits="userSpaceOnUse" x="0" y="0" width="95" height="78">
<mask id="mask2_69_559" style="mask-type:luminance" maskUnits="userSpaceOnUse" x="0" y="0" width="95" height="78">
<path d="M80.681 77.9865H17.1663C11.9747 73.1673 8.86211 70.2828 3.67052 65.4636L0 15.4367C2.10247 12.8629 3.34164 11.3503 5.44412 8.77656L73.4515 0C79.4125 4.69021 82.6836 7.26397 88.6387 11.9542L94.1357 63.0365C88.7561 69.0106 86.0605 72.0124 80.681 77.9865Z" fill="white"/>
</mask>
<g mask="url(#mask2_69_559)">
<path d="M105.212 2.54449H-12.8789V76.474H105.212V2.54449Z" fill="#233739"/>
<path d="M57.2721 0.0469971H35.061V78.9715H57.2721V0.0469971Z" fill="#233739"/>
<path d="M-18.3643 28.5224V50.502L110.691 50.502V28.5224L-18.3643 28.5224Z" fill="#233739"/>
<path d="M-26.5034 73.5582L-19.7085 85.3071L118.825 5.46211L112.03 -6.28677L-26.5034 73.5582Z" fill="#233739"/>
<path d="M-19.7027 -6.28678L-26.4976 5.4621L112.036 85.3071L118.83 73.5582L-19.7027 -6.28678Z" fill="#233739"/>
<path d="M52.4031 2.54449H39.9233V76.474H52.4031V2.54449Z" fill="#233739"/>
<path d="M108.735 7.05331L105.614 1.65613L-16.405 71.9829L-13.2836 77.3801L108.735 7.05331Z" fill="#233739"/>
<path d="M105.611 77.3772L108.732 71.98L-13.2863 1.65317L-16.4078 7.05035L105.611 77.3772Z" fill="#233739"/>
<path d="M-12.8848 33.2829V45.7413L105.206 45.7413V33.2829L-12.8848 33.2829Z" fill="#233739"/>
<path d="M105.212 28.5225H52.4033V33.283H105.212V28.5225Z" fill="#233739"/>
<path d="M39.9296 28.5225H-12.8789V33.283H39.9296V28.5225Z" fill="#233739"/>
<path d="M39.9296 45.7413H-12.8789V50.5018H39.9296V45.7413Z" fill="#233739"/>
<path d="M105.212 45.7413H52.4033V50.5018H105.212V45.7413Z" fill="#233739"/>
</g>
</mask>
<g mask="url(#mask1_69_559)">
<path d="M106.245 3.94867H-11.8462V77.8782L110.5 74L106.245 3.94867Z" fill="#3D3DA3"/>
<path d="M106.614 3.94861H67.1274V77.9865H106.614V3.94861Z" fill="#FF6C6C"/>
<path d="M67.1275 3.94861H27.6406L29 76.5L48 76L67.1275 77V3.94861Z" fill="white"/>
</g>
<rect x="74.4141" y="68" width="5" height="5" fill="white"/>
<rect x="84.4141" y="58" width="5" height="5" fill="white"/>
<rect x="84.4141" y="53" width="5" height="5" fill="white"/>
<rect x="84.4141" y="48" width="5" height="5" fill="white"/>
<rect x="79.4141" y="63" width="5" height="5" fill="white"/>
</svg>
