<svg width="100" height="85" viewBox="0 0 100 85" fill="none" xmlns="http://www.w3.org/2000/svg">
<path d="M86.4268 84.8865H22.3277C17.0842 79.954 13.947 76.9946 8.70989 72.0621L5 20.8162L10.4917 13.9946L79.1279 5.00012C85.1413 9.80362 88.444 12.4407 94.4574 17.2442L100 69.5669C94.572 75.6857 91.8484 78.7612 86.4204 84.88L86.4268 84.8865Z" fill="#398839"/>
<path d="M89.4567 12.2317C83.4417 7.432 80.1399 4.79975 74.1291 0L5.49321 8.98262C3.37273 11.6149 2.12048 13.1655 0 15.7978L3.70667 66.9894C8.94943 71.9201 12.0842 74.8735 17.327 79.8H81.4214C86.8478 73.6862 89.5736 70.6146 95 64.5008L89.4567 12.2317ZM69.1994 37.3459L67.7009 51.4663L68.974 53.7014L63.2888 63.6685H51.9225L46.2373 53.7014L51.9225 43.7343H61.6108L62.3955 36.3319L64.2197 24.7888H44.6803L42.0798 27.4211V38.6134L36.7077 49.8481L41.1031 57.5547L35.1298 68.0246H23.1875L17.2143 57.5547L23.1875 47.0848H30.388L35.2008 37.0163V24.5395L41.8294 17.83H72.2758L69.1911 37.3417L69.1994 37.3459Z" fill="#5DD85D"/>
<rect x="73" y="70" width="5" height="5" fill="#BCFABC"/>
<rect x="83" y="60" width="5" height="5" fill="#BCFABC"/>
<rect x="83" y="55" width="5" height="5" fill="#BCFABC"/>
<rect x="83" y="50" width="5" height="5" fill="#BCFABC"/>
<rect x="78" y="65" width="5" height="5" fill="#BCFABC"/>
<rect x="17" y="9" width="56" height="61" fill="#5DD85D"/>
<path d="M41.0359 26.5542H19.203L15 30.7513V40.7755C16.6428 42.416 17.5602 43.3321 19.203 44.9726H41.0359C46.5973 47.0605 51.6252 48.9496 57.1866 51.041L69.1662 61.5268V10L57.1866 20.4857C51.6252 22.5737 46.5973 24.4627 41.0359 26.5542Z" fill="#233739"/>
<path d="M34.8454 46.606H20.8389L32.278 68H46.2881L36.4028 56.1898L34.8454 46.606Z" fill="#233739"/>
<path d="M71.0615 27.4454V44.0813L78.2728 39.9232V31.6035L71.0615 27.4454Z" fill="#233739"/>
</svg>
