<?xml version="1.0" encoding="UTF-8"?>
<svg id="Calque_1" xmlns="http://www.w3.org/2000/svg" version="1.1" xmlns:xlink="http://www.w3.org/1999/xlink" viewBox="0 0 100 85">
  <!-- Generator: Adobe Illustrator 29.1.0, SVG Export Plug-In . SVG Version: 2.1.0 Build 142)  -->
  <defs>
    <style>
      .st0 {
        fill: #de6e24;
      }

      .st1 {
        fill: none;
      }

      .st2 {
        fill: #fed5b7;
      }

      .st3 {
        fill: #ec883d;
      }

      .st4 {
        fill: #9d5723;
      }

      .st5 {
        clip-path: url(#clippath);
      }
    </style>
    <clipPath id="clippath">
      <rect class="st1" x="22" y="22.1" width="56" height="51"/>
    </clipPath>
  </defs>
  <path class="st3" d="M81.4,79.8H17.3c-5.2-4.9-8.4-7.9-13.6-12.8L0,15.8l5.5-6.8L74.1,0c6,4.8,9.3,7.4,15.3,12.2l5.5,52.3c-5.4,6.1-8.2,9.2-13.6,15.3h0Z"/>
  <g>
    <rect class="st4" x="19.2" y="19.7" width="60.1" height="55.1"/>
    <path class="st4" d="M94.5,17.3c-6-4.8-9.3-7.4-15.3-12.2L10.5,14c-2.1,2.6-3.4,4.2-5.5,6.8l3.7,51.2c5.2,4.9,8.4,7.9,13.6,12.8h64.1c5.4-6.1,8.2-9.2,13.6-15.3l-5.5-52.3ZM74.2,42.4l-1.5,14.1,1.3,2.2-5.7,10h-11.4l-5.7-10,5.7-10h9.7l.8-7.4,1.8-11.5h-19.5l-2.6,2.6v11.2l-5.4,11.2,4.4,7.7-6,10.5h-11.9l-6-10.5,6-10.5h7.2l4.8-10.1v-12.5l6.6-6.7h30.4l-3.1,19.5h0Z"/>
    <g class="st5">
      <path class="st2" d="M78,22.1h-31l-6.7,6.8v12.7l-4.9,10.2h-7.3l-6.1,10.6,6.1,10.6h12.1l6.1-10.6-4.5-7.8,5.5-11.4v-11.4l2.6-1.7h18.9l-1.9,10.7-.8,7.5h-8.9l-5.8,10.1,5.8,10.1h11.6l5.8-10.1-1.3-2.3,1.5-14.3,3.1-19.8Z"/>
    </g>
    <rect class="st0" x="78" y="75" width="5" height="5"/>
    <rect class="st0" x="88" y="65" width="5" height="5"/>
    <rect class="st0" x="88" y="60" width="5" height="5"/>
    <rect class="st0" x="88" y="55" width="5" height="5"/>
    <rect class="st0" x="83" y="70" width="5" height="5"/>
  </g>
  <rect class="st2" x="11.8" y="46.4" width="80.3" height="2.6" transform="translate(-18.5 50.7) rotate(-45)"/>
  <rect class="st4" x="13.6" y="48.1" width="80.3" height="2.6" transform="translate(-19.2 52.5) rotate(-45)"/>
</svg>