<svg width="100" height="85" viewBox="0 0 100 85" fill="none" xmlns="http://www.w3.org/2000/svg">
<g clip-path="url(#clip0_391_572)">
<path d="M86.4 84.9H22.3C17.1 80 13.9 77 8.7 72.1L5 20.9L10.5 14.1L79.1 5C85.1 9.8 88.4 12.4 94.4 17.2L99.9 69.5C94.5 75.6 91.7 78.7 86.3 84.8L86.4 84.9Z" fill="#9D5723"/>
<mask id="mask0_391_572" style="mask-type:luminance" maskUnits="userSpaceOnUse" x="0" y="0" width="96" height="80">
<path d="M95.2002 0H0.200195V79.8H95.2002V0Z" fill="white"/>
</mask>
<g mask="url(#mask0_391_572)">
<path d="M89.6002 12.3C83.6002 7.50001 80.3002 4.90001 74.3002 0.100006L5.7002 9.10001C3.5002 11.7 2.3002 13.3 0.200195 15.9L3.9002 67.1C9.10019 72 12.3002 75 17.5002 79.9H81.6002C87.0002 73.8 89.8002 70.7 95.2002 64.6L89.7002 12.3H89.6002ZM69.4002 37.4L67.9002 51.5L69.2002 53.7L63.5002 63.7H52.1002L46.4002 53.7L52.1002 43.7H61.8002L62.6002 36.3L64.4002 24.8H44.9002L42.3002 27.4V38.6L36.9002 49.8L41.3002 57.5L35.3002 68H23.4002L17.4002 57.5L23.4002 47H30.6002L35.4002 36.9V24.4L42.0002 17.7H72.4002L69.3002 37.2L69.4002 37.4Z" fill="#EC883D"/>
<path d="M78.2002 70.1H73.2002V75.1H78.2002V70.1Z" fill="#FED5B7"/>
<path d="M88.2002 60.1H83.2002V65.1H88.2002V60.1Z" fill="#FED5B7"/>
<path d="M88.2002 55.1H83.2002V60.1H88.2002V55.1Z" fill="#FED5B7"/>
<path d="M88.2002 50.1H83.2002V55.1H88.2002V50.1Z" fill="#FED5B7"/>
<path d="M83.2002 65.1H78.2002V70.1H83.2002V65.1Z" fill="#FED5B7"/>
<path d="M73.2002 9.10001H17.2002V70.1H73.2002V9.10001Z" fill="#EC883D"/>
</g>
<path d="M22.6 31.2C25.3 27.7 28.1 24.2 30.8 20.7C32.3 21.9 33.9 23.2 35.4 24.4C32.8 27.9 30.2 31.4 27.6 35C25.9 33.7 24.2 32.4 22.5 31.2H22.6Z" fill="#233739"/>
<path d="M30.7998 20.7C35.6998 19.5 40.5998 18.3 45.3998 17.1C45.7998 19.1 46.1998 21 46.5998 23C41.7998 24.3 36.8998 25.6 32.0998 26.9C31.6998 24.8 31.1998 22.8 30.7998 20.7Z" fill="#233739"/>
<path d="M45.3999 17.1C50.1999 17.4 55.0999 17.8 59.8999 18.1C59.6999 20.1 59.4999 22.1 59.1999 24.1C54.3999 23.9 49.5999 23.7 44.8999 23.5C45.0999 21.4 45.1999 19.3 45.3999 17.2V17.1Z" fill="#233739"/>
<path d="M60.0001 18C64.1001 20.7 68.2001 23.4 72.3001 26.1C71.1001 27.7 69.9001 29.3 68.7001 30.9C64.7001 28.3 60.7001 25.7 56.6001 23.1C57.7001 21.4 58.9001 19.7 60.0001 18Z" fill="#233739"/>
<path d="M72.3 26.1C74.2 30.6 76.1 35 78.1 39.5C76.2 40.2 74.3 40.9 72.4 41.6C70.4 37.2 68.5 32.9 66.5 28.5C68.4 27.7 70.3 26.9 72.3 26.1Z" fill="#233739"/>
<path d="M78.0002 39.5C76.8002 44.2 75.7002 48.9 74.5002 53.7C72.6002 53.1 70.6002 52.6 68.7002 52C69.7002 47.3 70.8002 42.7 71.8002 38C73.9002 38.5 75.9002 39 78.0002 39.6V39.5Z" fill="#233739"/>
<path d="M74.4998 53.7C72.3998 56.8 70.2998 60 68.1998 63.1C66.5998 61.9 64.8998 60.8 63.2998 59.6C65.2998 56.3 67.3998 53 69.3998 49.7C71.0998 51 72.7998 52.3 74.4998 53.7Z" fill="#233739"/>
<path d="M68.2 63.1C64.6 64.7 61 66.4 57.4 68C56.6 66.2 55.8 64.3 55 62.5C58.5 60.7 61.9 59 65.4 57.2C66.4 59.2 67.3 61.2 68.3 63.1H68.2Z" fill="#233739"/>
<path d="M57.4 67.9C52.4 67.9 47.5 67.8 42.5 67.7C42.6 65.6 42.7 63.5 42.8 61.4C47.7 61.4 52.6 61.5 57.5 61.6C57.5 63.7 57.5 65.8 57.5 67.9H57.4Z" fill="#233739"/>
<path d="M42.4999 67.7C37.7999 66.1 33.0999 64.5 28.3999 63C29.0999 61.1 29.8999 59.2 30.5999 57.4C35.2999 58.9 39.8999 60.4 44.5999 61.8C43.8999 63.8 43.1999 65.8 42.4999 67.7Z" fill="#233739"/>
<path d="M28.4002 63L22.7002 49.4C24.6002 48.6 26.4002 47.9 28.3002 47.1C30.4002 51.5 32.6002 55.8 34.7002 60.2C32.6002 61.1 30.5002 62 28.4002 62.9V63Z" fill="#233739"/>
<path d="M21.6998 37.2L35.3998 49.1L18.2998 55L21.6998 37.2Z" fill="#233739"/>
</g>
<defs>
<clipPath id="clip0_391_572">
<rect width="100" height="85" fill="white"/>
</clipPath>
</defs>
</svg>
