<svg width="100" height="85" viewBox="0 0 100 85" fill="none" xmlns="http://www.w3.org/2000/svg">
<path d="M89.4567 12.2481C83.4417 7.44195 80.1399 4.80617 74.1291 1.18433e-09L5.49321 8.99464C3.37273 11.6304 2.12048 13.1831 2.5172e-10 15.8189L3.70667 67.079C8.94943 72.0164 12.0842 74.9737 17.327 79.9068L81.4214 79.9068C86.8478 73.7848 89.5736 70.7091 95 64.5871L89.4567 12.2481ZM69.1994 37.3959L67.7009 51.5351L68.974 53.7732L63.2888 63.7536L51.9225 63.7536L46.2373 53.7732L51.9225 43.7928L61.6108 43.7928L62.3955 36.3805L64.2197 24.822L44.6803 24.822L42.0798 27.4578L42.0798 38.6651L36.7077 49.9148L41.1031 57.6317L35.1298 68.1156L23.1875 68.1156L17.2143 57.6317L23.1875 47.1478L30.388 47.1478L35.2008 37.0659L35.2008 24.5724L41.8294 17.8539L72.2758 17.8539L69.1911 37.3916L69.1994 37.3959Z" fill="#784C2B"/>
<path d="M86.4268 85L22.3277 85C17.0842 80.061 13.947 77.0975 8.70989 72.1585L5 20.844L10.4917 14.0132L79.1279 5.00674C85.1413 9.81667 88.444 12.4573 94.4574 17.2672L100 69.6599C94.572 75.7869 91.8484 78.8665 86.4204 84.9936L86.4268 85Z" fill="#9D5723"/>
<g clip-path="url(#clip0_408_1167)">
<rect x="78" y="75.0268" width="5" height="5.00669" fill="#DE6E24"/>
<rect x="88" y="65.0134" width="5" height="5.00669" fill="#DE6E24"/>
<rect x="88" y="60.0067" width="5" height="5.00669" fill="#DE6E24"/>
<rect x="88" y="55" width="5" height="5.00669" fill="#DE6E24"/>
<rect x="83" y="70.0201" width="5" height="5.00669" fill="#DE6E24"/>
<path d="M68.4464 34.6991L68.4464 25.1071C68.0259 24.6798 67.7922 24.4424 67.3717 24.015L60.2924 24.015C59.8719 24.4424 59.6383 24.6798 59.2177 25.1071L59.2177 26.9828C59.2177 26.9828 59.206 27.0006 59.2002 26.9947L54.4164 23L51.5894 23L31 40.1777L31.3913 41.2936L33.7861 41.2936C33.7861 41.2936 33.7978 41.2936 33.7978 41.3054L33.7978 70.4077L36.4146 73.0669L69.5854 68.3184L72.2022 65.6593L72.2022 41.3054C72.2022 41.3054 72.2022 41.2936 72.2139 41.2936L74.6087 41.2936L75 40.1777L68.4464 34.711C68.4464 34.711 68.4464 34.711 68.4464 34.6991Z" fill="#FED5B7"/>
</g>
<defs>
<clipPath id="clip0_408_1167">
<rect width="95" height="79.9068" fill="white"/>
</clipPath>
</defs>
</svg>
