<?xml version="1.0" encoding="UTF-8"?>
<svg id="Calque_1" xmlns="http://www.w3.org/2000/svg" version="1.1" xmlns:xlink="http://www.w3.org/1999/xlink" viewBox="0 0 100 85">
  <!-- Generator: Adobe Illustrator 29.1.0, SVG Export Plug-In . SVG Version: 2.1.0 Build 142)  -->
  <defs>
    <style>
      .st0 {
        fill: #de6e24;
      }

      .st1 {
        fill: none;
      }

      .st2 {
        fill: #fed5b7;
      }

      .st3 {
        fill: #ec883d;
      }

      .st4 {
        fill: #9d5723;
      }

      .st5 {
        clip-path: url(#clippath);
      }
    </style>
    <clipPath id="clippath">
      <rect class="st1" x="5" y="5" width="95" height="79.8"/>
    </clipPath>
  </defs>
  <path class="st3" d="M81.4,79.8H17.3c-5.2-4.9-8.4-7.9-13.6-12.8L0,15.8l5.5-6.8L74.1,0c6,4.8,9.3,7.4,15.3,12.2l5.5,52.3c-5.4,6.1-8.2,9.2-13.6,15.3h0Z"/>
  <g class="st5">
    <g>
      <path class="st4" d="M94.5,17.3c-6-4.8-9.3-7.4-15.3-12.2L10.5,14c-2.1,2.6-3.4,4.2-5.5,6.8l3.7,51.2c5.2,4.9,8.4,7.9,13.6,12.8h64.1c5.4-6.1,8.2-9.2,13.6-15.3l-5.5-52.3ZM74.2,42.4l-1.5,14.1,1.3,2.2-5.7,10h-11.4l-5.7-10,5.7-10h9.7l.8-7.4,1.8-11.5h-19.5l-2.6,2.6v11.2l-5.4,11.2,4.4,7.7-6,10.5h-11.9l-6-10.5,6-10.5h7.2l4.8-10.1v-12.5l6.6-6.7h30.4l-3.1,19.5h0Z"/>
      <rect class="st0" x="78" y="75" width="5" height="5"/>
      <rect class="st0" x="88" y="65" width="5" height="5"/>
      <rect class="st0" x="88" y="60" width="5" height="5"/>
      <rect class="st0" x="88" y="55" width="5" height="5"/>
      <rect class="st0" x="83" y="70" width="5" height="5"/>
      <rect class="st4" x="22" y="14" width="56" height="61"/>
      <path class="st2" d="M28.8,35.4h-5.8c-1.6,1.6-2.5,2.5-4,4v11.7c1.6,1.6,2.5,2.5,4,4h5.8l16.8,11.1c1.3-.7,1.6-.9,2.9-1.6V25.9c-1.3-.7-1.6-.9-2.9-1.6l-16.8,11.1Z"/>
    </g>
  </g>
  <g>
    <rect class="st2" x="62.1" y="34.4" width="2.6" height="21" transform="translate(-13.2 58) rotate(-45)"/>
    <rect class="st2" x="52.9" y="43.7" width="21" height="2.6" transform="translate(-13.2 58) rotate(-45)"/>
  </g>
</svg>