<svg width="106" height="84" viewBox="0 0 106 84" fill="none" xmlns="http://www.w3.org/2000/svg">
<mask id="mask0_41_562" style="mask-type:luminance" maskUnits="userSpaceOnUse" x="7" y="4" width="96" height="79">
<path d="M88.7295 83H24.3894C19.1303 78.1182 15.9773 75.1962 10.7182 70.3144L7 19.6373C9.1298 17.0301 10.3851 15.4978 12.5149 12.8906L81.4061 4C87.4445 8.75116 90.7581 11.3584 96.7906 16.1095L102.359 67.8556C96.9096 73.9074 94.1789 76.9482 88.7295 83Z" fill="white"/>
</mask>
<g mask="url(#mask0_41_562)">
<path d="M113.579 6.57751H-6.04639V81.4677H113.579V6.57751Z" fill="#233739"/>
<path d="M65.0163 4.04755H42.5166V81.5H65L65.0163 4.04755Z" fill="#233739"/>
<path d="M-11.603 32.8931L-11.603 55.1582L119.13 55.1582V32.8931L-11.603 32.8931Z" fill="#233739"/>
<path d="M-19.8475 78.5141L-12.9644 90.4156L127.369 9.53301L120.486 -2.36855L-19.8475 78.5141Z" fill="#233739"/>
<path d="M-12.9586 -2.36848L-19.8418 9.53308L120.492 90.4157L127.375 78.5142L-12.9586 -2.36848Z" fill="#233739"/>
<path d="M60.0843 6.57751H47.4424V81.4677H60.0843V6.57751Z" fill="#233739"/>
<path d="M117.148 11.1449L113.986 5.67761L-9.61813 76.9184L-6.45615 82.3857L117.148 11.1449Z" fill="#233739"/>
<path d="M113.984 82.3827L117.146 76.9154L-6.45895 5.67467L-9.62092 11.142L113.984 82.3827Z" fill="#233739"/>
<path d="M-6.05225 37.7154L-6.05225 50.3357L113.573 50.3357V37.7154L-6.05225 37.7154Z" fill="#233739"/>
<path d="M113.579 32.893H60.0845V37.7154H113.579V32.893Z" fill="#233739"/>
<path d="M47.4484 32.893H-6.04639V37.7154H47.4484V32.893Z" fill="#233739"/>
<path d="M47.4484 50.3357H-6.04639V55.1581H47.4484V50.3357Z" fill="#233739"/>
<path d="M113.579 50.3357H60.0845V55.1581H113.579V50.3357Z" fill="#233739"/>
</g>
<mask id="mask1_41_562" style="mask-type:luminance" maskUnits="userSpaceOnUse" x="0" y="0" width="96" height="79">
<path d="M81.7295 79H17.3894C12.1303 74.1182 8.97727 71.1962 3.71822 66.3144L0 15.6373C2.1298 13.0301 3.38507 11.4978 5.51487 8.89062L74.4061 0C80.4445 4.75116 83.7581 7.35836 89.7906 12.1095L95.359 63.8556C89.9096 69.9074 87.1789 72.9482 81.7295 79Z" fill="white"/>
</mask>
<g mask="url(#mask1_41_562)">
<path d="M106.579 2.57751H-13.0464V77.4677H106.579V2.57751Z" fill="#3D3DA3"/>
<path d="M58 77.5V2.5H55L36 5V77.5H58Z" fill="white"/>
<path d="M-18.603 28.8931V51.1582L112.13 51.1582V28.8931L-18.603 28.8931Z" fill="white"/>
<path d="M-26.8475 74.5141L-19.9644 86.4156L120.369 5.53301L113.486 -6.36855L-26.8475 74.5141Z" fill="white"/>
<path d="M-19.9586 -6.36848L-26.8418 5.53308L113.492 86.4157L120.375 74.5142L-19.9586 -6.36848Z" fill="white"/>
<path d="M53.0843 2.57751H40.4424V77.5H53L53.0843 2.57751Z" fill="#FF6C6C"/>
<path d="M110.148 7.14493L106.986 1.67761L-16.6181 72.9184L-13.4561 78.3857L110.148 7.14493Z" fill="#FF6C6C"/>
<path d="M106.984 78.3827L110.146 72.9154L-13.4589 1.67467L-16.6209 7.14198L106.984 78.3827Z" fill="#FF6C6C"/>
<path d="M-13.0522 33.7154V46.3357L106.573 46.3357V33.7154L-13.0522 33.7154Z" fill="#FF6C6C"/>
<path d="M106.579 28.893H53.0845V33.7154H106.579V28.893Z" fill="white"/>
<path d="M40.4484 28.893H-13.0464V33.7154H40.4484V28.893Z" fill="white"/>
<path d="M40.4484 46.3357H-13.0464V51.1581H40.4484V46.3357Z" fill="white"/>
<path d="M106.579 46.3357H53.0845V51.1581H106.579V46.3357Z" fill="white"/>
</g>
<rect x="73" y="69" width="5" height="5" fill="white"/>
<rect x="83" y="59" width="5" height="5" fill="white"/>
<rect x="83" y="54" width="5" height="5" fill="white"/>
<rect x="83" y="49" width="5" height="5" fill="white"/>
<rect x="78" y="64" width="5" height="5" fill="white"/>
</svg>
