<svg width="100" height="85" viewBox="0 0 100 85" fill="none" xmlns="http://www.w3.org/2000/svg">
<path d="M86.4268 84.8865H22.3277C17.0842 79.954 13.947 76.9946 8.70989 72.0621L5 20.8162L10.4917 13.9946L79.1279 5.00012C85.1413 9.80362 88.444 12.4407 94.4574 17.2442L100 69.5669C94.572 75.6857 91.8484 78.7612 86.4204 84.88L86.4268 84.8865Z" fill="#9D5723"/>
<g clip-path="url(#clip0_41_723)">
<path d="M89.4567 12.2318C83.4417 7.43206 80.1399 4.79981 74.1291 6.10352e-05L5.49321 8.98268C3.37273 11.6149 2.12048 13.1656 0 15.7978L3.70667 66.9895C8.94943 71.9202 12.0842 74.8736 17.327 79.8001H81.4214C86.8478 73.6863 89.5736 70.6146 95 64.5009L89.4567 12.2318ZM69.1994 37.346L67.7009 51.4663L68.974 53.7014L63.2888 63.6685H51.9225L46.2373 53.7014L51.9225 43.7344H61.6108L62.3955 36.3319L64.2197 24.7889H44.6803L42.0798 27.4211V38.6135L36.7077 49.8481L41.1031 57.5548L35.1298 68.0246H23.1875L17.2143 57.5548L23.1875 47.0849H30.388L35.2008 37.0164V24.5396L41.8294 17.8301H72.2758L69.1911 37.3417L69.1994 37.346Z" fill="#EC883D"/>
<rect x="73" y="70.0001" width="5" height="5" fill="#FED5B7"/>
<rect x="83" y="60.0001" width="5" height="5" fill="#FED5B7"/>
<rect x="83" y="55.0001" width="5" height="5" fill="#FED5B7"/>
<rect x="83" y="50.0001" width="5" height="5" fill="#FED5B7"/>
<rect x="78" y="65.0001" width="5" height="5" fill="#FED5B7"/>
<rect x="17" y="9.00012" width="56" height="61" fill="#EC883D"/>
<path d="M63.4464 26.6835V17.1043C63.0259 16.6775 62.7922 16.4404 62.3717 16.0136H55.2924C54.8719 16.4404 54.6383 16.6775 54.2177 17.1043V18.9775C54.2177 18.9775 54.206 18.9953 54.2002 18.9893L49.4164 15H46.5894L26 32.1547L26.3913 33.2691H28.7861C28.7861 33.2691 28.7978 33.2691 28.7978 33.281V62.3444L31.4146 65L64.5854 60.2579L67.2022 57.6023V33.281C67.2022 33.281 67.2022 33.2691 67.2139 33.2691H69.6087L70 32.1547L63.4464 26.6953C63.4464 26.6953 63.4464 26.6953 63.4464 26.6835Z" fill="#233739"/>
</g>
<defs>
<clipPath id="clip0_41_723">
<rect width="95" height="79.8" fill="white"/>
</clipPath>
</defs>
</svg>
