<svg width="94" height="81" viewBox="0 0 94 81" fill="none" xmlns="http://www.w3.org/2000/svg">
<path d="M76.8527 80.9936H17.3194C12.6762 76.5761 9.90026 73.9306 5.25709 69.513L1.77783 20.8751C4.97079 16.8655 6.85668 14.5006 10.0559 10.491L77.2386 1.5921C81.7324 5.21923 84.2034 7.21446 88.6971 10.848L94.0001 61.4429C87.1473 69.2581 83.6992 73.1848 76.8465 81L76.8527 80.9936Z" fill="#1B4F1B"/>
<path d="M75.0749 79.4015H15.5415C10.8984 74.984 8.12243 72.3385 3.47926 67.9209L0 19.283C3.19295 15.2734 5.07884 12.9085 8.27802 8.89889L75.4608 0C79.9546 3.62713 82.4255 5.62236 86.9193 9.25586L92.2222 59.8507C85.3695 67.666 81.9214 71.5927 75.0686 79.4079L75.0749 79.4015Z" fill="#398839"/>
<path d="M35.3769 16.7763L71.1113 40.8256L31.1113 64.8684L35.3769 16.7763Z" fill="#BCFABC"/>
<rect x="68.8887" y="65.9868" width="5.55556" height="5.59211" fill="#5DD85D"/>
<rect x="80" y="54.8026" width="5.55556" height="5.59211" fill="#5DD85D"/>
<rect x="80" y="49.2105" width="5.55556" height="5.59211" fill="#5DD85D"/>
<rect x="80" y="43.6184" width="5.55556" height="5.59211" fill="#5DD85D"/>
<rect x="74.4443" y="60.3947" width="5.55556" height="5.5921" fill="#5DD85D"/>
</svg>
