<svg width="100" height="85" viewBox="0 0 100 85" fill="none" xmlns="http://www.w3.org/2000/svg">
<path d="M86.4268 84.8864H22.3277C17.0842 79.954 13.947 76.9945 8.70989 72.0621L5 20.8161L10.4917 13.9945L79.1279 5.00006C85.1413 9.80356 88.444 12.4406 94.4574 17.2441L100 69.5668C94.572 75.6856 91.8484 78.7612 86.4204 84.88L86.4268 84.8864Z" fill="#9D5723"/>
<g clip-path="url(#clip0_262_172)">
<path d="M89.4567 12.2317C83.4417 7.432 80.1399 4.79975 74.1291 0L5.49321 8.98262C3.37273 11.6149 2.12048 13.1655 0 15.7978L3.70667 66.9894C8.94943 71.9201 12.0842 74.8735 17.327 79.8H81.4214C86.8478 73.6862 89.5736 70.6146 95 64.5008L89.4567 12.2317ZM69.1994 37.3459L67.7009 51.4663L68.974 53.7014L63.2888 63.6685H51.9225L46.2373 53.7014L51.9225 43.7343H61.6108L62.3955 36.3319L64.2197 24.7888H44.6803L42.0798 27.4211V38.6134L36.7077 49.8481L41.1031 57.5547L35.1298 68.0246H23.1875L17.2143 57.5547L23.1875 47.0848H30.388L35.2008 37.0163V24.5395L41.8294 17.83H72.2758L69.1911 37.3417L69.1994 37.3459Z" fill="#EC883D"/>
<g clip-path="url(#clip1_262_172)">
<path d="M73 17.0001H42.0361L35.295 23.8169V36.4944L30.3975 46.7234H23.0714L17 57.3617L23.0714 68.0001H35.2178L41.2928 57.3617L36.8221 49.5327L42.2863 38.1167V26.7454L44.9319 25.07H63.8018L61.9473 35.7985L61.1451 43.3187H52.2948L46.5142 53.4435L52.2948 63.5684H63.8562L69.6368 53.4435L68.3416 51.1737L69.865 36.8255L73 17.0001Z" fill="#233739"/>
</g>
<rect x="73" y="70.0001" width="5" height="5" fill="#FED5B7"/>
<rect x="83" y="60.0001" width="5" height="5" fill="#FED5B7"/>
<rect x="83" y="55.0001" width="5" height="5" fill="#FED5B7"/>
<rect x="83" y="50.0001" width="5" height="5" fill="#FED5B7"/>
<rect x="78" y="65.0001" width="5" height="5" fill="#FED5B7"/>
</g>
<defs>
<clipPath id="clip0_262_172">
<rect width="95" height="79.8" fill="white"/>
</clipPath>
<clipPath id="clip1_262_172">
<rect width="56" height="51" fill="white" transform="translate(17 17.0001)"/>
</clipPath>
</defs>
</svg>
