<svg width="100" height="85" viewBox="0 0 100 85" fill="none" xmlns="http://www.w3.org/2000/svg">
<path d="M86.4268 84.8864H22.3277C17.0842 79.954 13.947 76.9945 8.70989 72.0621L5 20.8161L10.4917 13.9945L79.1279 5.00006C85.1413 9.80356 88.444 12.4406 94.4574 17.2441L100 69.5668C94.572 75.6856 91.8484 78.7612 86.4204 84.88L86.4268 84.8864Z" fill="#9D5723"/>
<g clip-path="url(#clip0_41_501)">
<path d="M89.4567 12.2317C83.4417 7.432 80.1399 4.79975 74.1291 0L5.49321 8.98262C3.37273 11.6149 2.12048 13.1655 0 15.7978L3.70667 66.9894C8.94943 71.9201 12.0842 74.8735 17.327 79.8H81.4214C86.8478 73.6862 89.5736 70.6146 95 64.5008L89.4567 12.2317ZM69.1994 37.3459L67.7009 51.4663L68.974 53.7014L63.2888 63.6685H51.9225L46.2373 53.7014L51.9225 43.7343H61.6108L62.3955 36.3319L64.2197 24.7888H44.6803L42.0798 27.4211V38.6134L36.7077 49.8481L41.1031 57.5547L35.1298 68.0246H23.1875L17.2143 57.5547L23.1875 47.0848H30.388L35.2008 37.0163V24.5395L41.8294 17.83H72.2758L69.1911 37.3417L69.1994 37.3459Z" fill="#EC883D"/>
<rect x="73" y="70.0001" width="5" height="5" fill="#FED5B7"/>
<rect x="83" y="60.0001" width="5" height="5" fill="#FED5B7"/>
<rect x="83" y="55.0001" width="5" height="5" fill="#FED5B7"/>
<rect x="83" y="50.0001" width="5" height="5" fill="#FED5B7"/>
<rect x="78" y="65.0001" width="5" height="5" fill="#FED5B7"/>
<rect x="17" y="9.00006" width="56" height="61" fill="#EC883D"/>
<path d="M23.7625 30.3538H17.9394C16.3711 31.9245 15.4887 32.8083 13.9204 34.379V46.0435C15.4887 47.6142 16.3711 48.498 17.9394 50.0687H23.7625L40.546 61.125C41.8565 60.4162 42.1361 60.2675 43.451 59.5587V20.8638C42.1405 20.155 41.8609 20.0062 40.546 19.2975L23.7625 30.3538Z" fill="#233739"/>
<path d="M49.1431 30.8831L51.3579 34.7246V45.6977L49.1431 49.5349L51.6243 50.9699L54.2235 46.4634V33.9545L51.6243 29.448L49.1431 30.8831Z" fill="#233739"/>
<path d="M64.3539 33.9546L57.4168 21.9182L54.9355 23.3533L61.4926 34.7247V45.6978L54.9355 57.0691L57.4168 58.5042L64.3539 46.4635V33.9546Z" fill="#233739"/>
<path d="M66.0316 16.6636L63.5503 18.0987L73.1346 34.7247V45.6979L63.5503 62.3239L66.0316 63.759L76.0003 46.4635V33.9546L66.0316 16.6636Z" fill="#233739"/>
</g>
<defs>
<clipPath id="clip0_41_501">
<rect width="95" height="79.8" fill="white"/>
</clipPath>
</defs>
</svg>
