<?xml version="1.0" encoding="UTF-8"?>
<svg id="Calque_2" data-name="Calque 2" xmlns="http://www.w3.org/2000/svg" viewBox="0 0 35.83 36.79">
  <defs>
    <style>
      .cls-1 {
        fill: #fff;
      }

      .cls-2 {
        fill: #4d9d93;
      }

      .cls-3 {
        fill: #c39ef9;
      }

      .cls-4 {
        fill: #b07ff7;
      }

      .cls-5 {
        fill: #41d3bd;
      }
    </style>
  </defs>
  <g id="Calque_1-2" data-name="Calque 1">
    <path class="cls-2" d="M35.83,16.23l-1.15,11.62-4.98,6-15.7,2.94L2.64,27.72l-1.02-11.49,2.88-6.55,12.19-7.34s10.72,4.24,16.09,6.36c1.02,2.51,3.06,7.53,3.06,7.53Z"/>
    <path class="cls-5" d="M34.21,13.89l-1.15,11.62-4.98,6-15.7,2.94L1.02,25.38,0,13.89l2.88-6.55L15.06,0s10.72,4.24,16.09,6.36c1.02,2.51,3.06,7.53,3.06,7.53Z"/>
    <path class="cls-4" d="M29.6,14.79l-.84,8.48-3.64,4.38-11.47,2.14-8.3-6.62-.75-8.39,2.1-4.79,8.9-5.36s7.83,3.1,11.75,4.65c.75,1.83,2.24,5.5,2.24,5.5Z"/>
    <g>
      <rect class="cls-1" x="15.49" y="8.26" width="1.19" height="10.13"/>
      <rect class="cls-1" x="18.13" y="16.18" width="1.19" height="6.77" transform="translate(-7.58 26) rotate(-60)"/>
    </g>
    <g>
      <rect id="lumière" class="cls-3" x="20.66" y="8.39" width="1.38" height="1.38"/>
      <rect id="lumière-2" data-name="lumière" class="cls-3" x="22.04" y="9.77" width="1.38" height="1.38"/>
      <rect id="lumière-3" data-name="lumière" class="cls-3" x="23.42" y="9.77" width="1.38" height="1.38"/>
      <rect id="lumière-4" data-name="lumière" class="cls-3" x="24.81" y="11.15" width="1.38" height="1.38"/>
    </g>
    <g>
      <rect id="lumière-5" data-name="lumière" class="cls-3" x="12.65" y="25.66" width="1.38" height="1.38" transform="translate(26.69 52.7) rotate(180)"/>
      <rect id="lumière-6" data-name="lumière" class="cls-3" x="11.27" y="24.27" width="1.38" height="1.38" transform="translate(23.92 49.93) rotate(180)"/>
      <rect id="lumière-7" data-name="lumière" class="cls-3" x="9.89" y="24.27" width="1.38" height="1.38" transform="translate(21.15 49.93) rotate(180)"/>
      <rect id="lumière-8" data-name="lumière" class="cls-3" x="8.5" y="22.89" width="1.38" height="1.38" transform="translate(18.39 47.17) rotate(180)"/>
    </g>
  </g>
</svg>