<?xml version="1.0" encoding="UTF-8"?>
<svg id="Calque_2" xmlns="http://www.w3.org/2000/svg" version="1.1" viewBox="0 0 410.9 268">
  <!-- Generator: Adobe Illustrator 29.1.0, SVG Export Plug-In . SVG Version: 2.1.0 Build 142)  -->
  <defs>
    <style>
      .st0 {
        fill: #e03400;
      }

      .st1 {
        fill: #41a7a9;
        stroke: #6d6d6d;
        stroke-miterlimit: 10;
        stroke-width: 5px;
      }

      .st2 {
        fill: #6d6d6d;
      }
    </style>
  </defs>
  <g id="Calque_1-2">
    <g id="Feuille1">
      <line class="st1" x1="78.9" y1="211.1" x2="106.1" y2="224.3"/>
      <line class="st1" x1="42.7" y1="176.9" x2="79.5" y2="211.5"/>
      <line class="st1" x1="25.8" y1="143.7" x2="43.2" y2="177.5"/>
      <line class="st1" x1="29" y1="74.2" x2="26.1" y2="145"/>
      <line class="st1" x1="51" y1="23.7" x2="28.8" y2="75.1"/>
    </g>
    <g id="Feuille11">
      <line class="st1" x1="332" y1="211.4" x2="304.8" y2="224.6"/>
      <line class="st1" x1="368.2" y1="177.1" x2="331.4" y2="211.8"/>
      <line class="st1" x1="385.1" y1="143.9" x2="367.7" y2="177.9"/>
      <line class="st1" x1="381.8" y1="74.4" x2="384.8" y2="145.3"/>
      <line class="st1" x1="359.9" y1="24" x2="382" y2="75.3"/>
    </g>
    <path class="st2" d="M205.9,191.9l13.4,24.7,24.1,12.9-23.5,14.5-14.9,24-13.4-23.6-24.2-14,24.2-13.6,14.3-24.8h0q0,0,0,0h0ZM195.9,228.3c-1.2.7-2.4,1.3-3.4,1.7,1.9.8,5,2.5,7.9,5.5,2.7,2.8,4.2,5.7,5,7.5.8-1.9,2.4-4.8,5.2-7.7,2.9-2.9,5.9-4.5,7.8-5.3-1.7-.6-4.8-1.9-7.8-4.8-3.1-3.1-4.5-6.4-5.1-8.2-.4,1.1-1,2.3-1.8,3.6-1.2,1.9-2.5,3.4-3.6,4.5s-2.4,2.2-4.2,3.2h0Z"/>
  </g>
  <path class="st2" d="M290.7,199.1l1.1,24.1,13.8,19-23.6,2.4-20.5,13-1.5-23.3-13.5-19.9,23.8-1.4,20.4-13.8h0ZM269.3,223.5c-1.2.1-2.3,0-3.2,0,1.2,1.3,2.9,3.8,4,7.2,1,3.2,1.1,6,1.1,7.7,1.3-1.2,3.7-2.8,6.9-4,3.3-1.2,6.3-1.3,8-1.2-1.1-1.1-3-3.3-4.2-6.6-1.2-3.6-1.1-6.6-.9-8.3-.7.7-1.7,1.4-2.8,2.1-1.6,1-3.2,1.7-4.5,2.1-1.2.4-2.7.8-4.5.9h.1Z"/>
  <path class="st2" d="M122.7,199.1h0l20.4,13.9,23.8,1.4-13.5,19.9-1.5,23.3-20.5-13-23.6-2.4,13.8-19,1.1-24.1h0ZM139.7,222.5c-1.2-.4-2.8-1.1-4.5-2.1-1.1-.7-2-1.5-2.8-2.1.2,1.6.4,4.7-.9,8.3-1.2,3.4-3.1,5.5-4.2,6.6,1.8,0,4.7,0,8,1.2s5.6,2.8,6.9,4c0-1.7,0-4.5,1.1-7.7,1.1-3.4,2.9-5.9,4-7.2-.9,0-2,.1-3.2,0-1.8-.2-3.3-.5-4.5-.9h0Z"/>
  <g id="Chat">
    <g>
      <g>
        <path class="st0" d="M263.1,166.7l16.2,4.2c1.6-3.6,3.3-7.2,4.9-10.8l-19.4-2.2.4-3.1,20.2,2.3c2.7-6.6,5.3-13.3,8-19.9-6.3-23.8-12.4-47.5-18.7-71.3-6.1-13-12.4-26-18.5-39-3.4-6.9-6.9-13.9-10.3-20.7h-4.9c-7.4,18.5-14.7,37.2-22.1,55.7-1.2.9-2.3,1.7-3.6,2.6h-7.6c0,28.8.2,57.6.3,86.4h7c.5,1,1.1,1.8,1.6,2.8-1.4,1.3-2.8,2.7-4.3,4-1.6,1.4-3.1,2.8-4.7,4,0,7-.1,14.1-.2,21.1h10.7c3.9,5.9,8,11.8,11.9,17.7h4.5c4.2-5.8,8.2-11.7,12.4-17.4,8.7,0,17.4.1,26.1.2,1.6-3.3,3.3-6.5,4.9-9.8l-15.6-4,.7-2.8h0ZM254.4,148.9h-2.3c-3.2,7.5-6.3,15-9.4,22.5.2-7.5.6-15,.9-22.5h-10.4l-1-3.6,6.7-13.6c1-2,2.9-3.6,4.4-3.6h4.9l9.1-24.1c0,8,.1,16.1.2,24.1h7.2l1,3.6-6.7,13.6c-1,2-2.9,3.6-4.4,3.6h-.1,0Z"/>
        <path class="st0" d="M199.5,153.6c.5-.9,1-1.8,1.5-2.7h7.5c-.1-28.8-.4-57.7-.5-86.4h-9.7l-3.6-2.6-22.1-55.6h-4.9c-3.4,6.9-10.3,20.6-10.3,20.6v3.1l5.5,8.8-1.3,2.1h-9.4l-2,1.1c-3.8,8-7.7,16-11.5,23.9-6.3,23.8-12.4,47.5-18.7,71.3l7.5,18.8c.4,1.1.9,2.1,1.3,3.2l21.7-2.5.4,3.1-20.9,2.3c1.6,3.8,3.3,7.4,5,10.9l17.4-4.5.7,2.9-16.8,4.4c1.2,2.6,2.6,5.2,3.8,7.6,8.7,0,17.4-.1,26.1-.2,4.2,5.8,8.3,11.7,12.4,17.4h4.5c3.9-6,8-11.9,11.9-17.8h13v-21.1h-.5l-8.2-8.2ZM177,164.7c-.4,3.1-3,6.8-6.8,6.8-3.7,0-6.4-3.5-6.8-6.8-.4-3.5,1.9-6.1,2.3-6.5,1.5-2.3,3-4.7,4.6-7,1.6,2.4,3.1,4.7,4.7,7.1.4.5,2.5,3,2,6.5ZM183,148.9h-21.4c-1.5,0-3.4-1.6-4.4-3.6l-6.7-13.6,1-3.6h21.4c1.5,0,3.4,1.6,4.4,3.6l6.7,13.6-1,3.6Z"/>
      </g>
      <path class="st0" d="M279.3,171c3.6,1,7.1,1.8,10.8,2.7s7.1,1.8,10.8,2.7l-.7,2.9c-7.4-1.8-14.7-3.8-22.1-5.6l1.3-2.8h-.1Z"/>
      <path class="st0" d="M285.6,157.3c16.2,1.8,32.4,3.6,48.7,5.4l-.4,3.1c-16.6-1.8-33-3.7-49.6-5.5.4-1,.9-2,1.2-2.9h0Z"/>
      <path class="st0" d="M114.7,178.4l.7,2.9c7-1.8,13.9-3.6,20.9-5.4-.5-1-.9-1.8-1.3-2.8,0,0-20.2,5.3-20.2,5.3Z"/>
      <path class="st0" d="M81.3,164.5l.4,3.1c16.1-1.8,32.2-3.6,48.2-5.4-.4-1-.9-2-1.2-2.9-15.8,1.7-31.5,3.6-47.4,5.3h0Z"/>
    </g>
  </g>
</svg>