<?xml version="1.0" encoding="UTF-8"?>
<svg id="Chat" xmlns="http://www.w3.org/2000/svg" version="1.1" xmlns:xlink="http://www.w3.org/1999/xlink" viewBox="0 0 324 264">
  <!-- Generator: Adobe Illustrator 29.1.0, SVG Export Plug-In . SVG Version: 2.1.0 Build 142)  -->
  <defs>
    <style>
      .st0 {
        fill: #ffd235;
      }

      .st1 {
        isolation: isolate;
      }

      .st2 {
        fill: silver;
        stroke: #ffd235;
        stroke-miterlimit: 10;
        stroke-width: 5px;
      }

      .st3 {
        display: none;
      }

      .st4 {
        fill: #1d1d1b;
      }

      .st5 {
        fill: #5dd85d;
      }
    </style>
  </defs>
  <g id="Feuille1">
    <line class="st2" x1="79.8" y1="212" x2="107" y2="225.2"/>
    <line class="st2" x1="43.6" y1="177.8" x2="80.4" y2="212.4"/>
    <line class="st2" x1="26.7" y1="144.6" x2="44.1" y2="178.4"/>
    <line class="st2" x1="29.9" y1="75.1" x2="27" y2="145.9"/>
    <line class="st2" x1="51.9" y1="24.6" x2="29.7" y2="76"/>
    <path class="st0" d="M44.9,216.1c-3-.6-5.9-1.1-8.9-1.7-3-1.5-5.9-2.9-8.9-4.4-2.3-2.9-4.7-5.9-7-8.8,2.6-2.8,5.2-5.6,7.9-8.5,2.7-1.7,5.5-3.3,8.2-5,4.5.1,9,.2,13.5.3,4.9,3.2,9.9,6.4,14.8,9.6l-10.2,11.7c-3.1,2.3-6.3,4.5-9.4,6.8h0Z"/>
    <path class="st0" d="M19.5,177.4c-2.3-.9-4.6-1.9-7-2.8-2.2-1.7-4.3-3.3-6.5-5-1.4-2.8-2.8-5.5-4.2-8.3,2.6-1.9,5.2-3.7,7.8-5.6,2.5-.9,5-1.8,7.5-2.7,3.6.8,7.3,1.6,10.9,2.5,3.5,3.4,7,6.8,10.5,10.2-3.4,2.6-6.8,5.2-10.2,7.9-2.9,1.3-5.8,2.7-8.8,4v-.2h0Z"/>
    <path class="st0" d="M5.5,135.2c-1-2.1-2.1-4.1-3.1-6.2-.5-2.5-1-4.9-1.5-7.4.7-2.8,1.4-5.5,2.1-8.3,2.9.3,5.8.5,8.7.8,2.3.9,4.6,1.7,6.8,2.6,2,2.8,4.1,5.5,6.1,8.3.4,4.5.8,8.9,1.1,13.4-3.9-.2-7.9-.5-11.8-.7-2.8-.8-5.6-1.7-8.5-2.5h0Z"/>
    <path class="st0" d="M10.4,93.4c-.6-1.9-1.2-3.9-1.9-5.8,0-2.2-.2-4.4-.3-6.7,1-2.3,2-4.7,3-7,2.5.6,5,1.3,7.6,1.9,1.9,1.1,3.8,2.2,5.6,3.2,1.4,2.7,2.8,5.4,4.2,8.1-.3,4-.6,7.9-.9,11.9-3.4-.8-6.8-1.5-10.3-2.3-2.4-1.1-4.7-2.3-7.1-3.4h.1Z"/>
    <path class="st0" d="M23.4,50.9c0-1.8-.2-3.6-.3-5.4.4-1.9.9-3.9,1.3-5.8,1.4-1.8,2.8-3.6,4.2-5.3,2,1.1,4,2.3,6.1,3.4l4.1,4.1c.6,2.6,1.2,5.3,1.7,7.9-1.2,3.3-2.3,6.7-3.5,10-2.8-1.4-5.5-2.9-8.3-4.3-1.8-1.5-3.5-3-5.3-4.5h0Z"/>
    <path class="st0" d="M46.7,10.9c1.4-1.6,2.7-3.2,4.1-4.8,1.9-1.3,3.8-2.6,5.7-3.9,2.6-.4,5.2-.8,7.7-1.3.8,2.5,1.7,5.1,2.5,7.6,0,2.2.2,4.5.3,6.7-1.6,2.7-3.2,5.4-4.8,8.1-3.6,1.9-7.2,3.8-10.8,5.8-1.2-3.4-2.4-6.8-3.7-10.2-.3-2.7-.6-5.3-.9-8h0Z"/>
  </g>
  <g id="Feuille11">
    <line class="st2" x1="244.3" y1="212.3" x2="217.1" y2="225.5"/>
    <line class="st2" x1="280.5" y1="178.1" x2="243.7" y2="212.7"/>
    <line class="st2" x1="297.4" y1="144.9" x2="280" y2="178.8"/>
    <line class="st2" x1="294.1" y1="75.4" x2="297.1" y2="146.2"/>
    <line class="st2" x1="272.2" y1="24.9" x2="294.3" y2="76.3"/>
    <path class="st0" d="M279.2,216.4c3-.6,5.9-1.1,8.9-1.7,3-1.5,5.9-2.9,8.9-4.4,2.3-2.9,4.7-5.9,7-8.8-2.6-2.8-5.2-5.6-7.9-8.5-2.7-1.7-5.5-3.3-8.2-5-4.5.1-9,.2-13.5.3-4.9,3.2-9.9,6.4-14.8,9.6,3.4,3.9,6.8,7.8,10.2,11.7,3.1,2.3,6.3,4.5,9.4,6.8h0Z"/>
    <path class="st0" d="M304.6,177.7c2.3-.9,4.6-1.9,7-2.8,2.2-1.7,4.3-3.3,6.5-5,1.4-2.8,2.8-5.5,4.2-8.3-2.6-1.9-5.2-3.7-7.8-5.6-2.5-.9-5-1.8-7.5-2.7-3.6.8-7.3,1.6-10.9,2.5-3.5,3.4-7,6.8-10.5,10.2,3.4,2.6,6.8,5.2,10.2,7.9,2.9,1.3,5.8,2.7,8.8,4v-.2h0Z"/>
    <path class="st0" d="M318.6,135.5c1-2.1,2.1-4.1,3.1-6.2.5-2.5,1-4.9,1.5-7.4-.7-2.8-1.4-5.5-2.1-8.3-2.9.3-5.8.5-8.7.8-2.3.9-4.6,1.7-6.8,2.6-2,2.8-4.1,5.5-6.1,8.3-.4,4.5-.8,8.9-1.1,13.4,3.9-.2,7.9-.5,11.8-.7,2.8-.8,5.6-1.7,8.5-2.5h0Z"/>
    <path class="st0" d="M313.7,93.7c.6-1.9,1.2-3.9,1.9-5.8,0-2.2.2-4.4.3-6.7-1-2.3-2-4.7-3-7-2.5.6-5,1.3-7.6,1.9-1.9,1.1-3.8,2.2-5.6,3.2-1.4,2.7-2.8,5.4-4.2,8.1.3,4,.6,7.9.9,11.9,3.4-.8,6.8-1.5,10.3-2.3,2.4-1.1,4.7-2.3,7.1-3.4h0Z"/>
    <path class="st0" d="M300.6,51.2c0-1.8.2-3.6.3-5.4-.4-1.9-.9-3.9-1.3-5.8-1.4-1.8-2.8-3.6-4.2-5.3-2,1.1-4,2.3-6.1,3.4-1.4,1.4-2.7,2.7-4.1,4.1-.6,2.6-1.2,5.3-1.7,7.9,1.2,3.3,2.3,6.7,3.5,10,2.8-1.4,5.5-2.9,8.3-4.3,1.8-1.5,3.5-3,5.3-4.5h0Z"/>
    <path class="st0" d="M277.4,11.2c-1.4-1.6-2.7-3.2-4.1-4.8-1.9-1.3-3.8-2.6-5.7-3.9-2.6-.4-5.2-.8-7.7-1.3-.8,2.5-1.7,5.1-2.5,7.6,0,2.2-.2,4.5-.3,6.7,1.6,2.7,3.2,5.4,4.8,8.1,3.6,1.9,7.2,3.8,10.8,5.8,1.2-3.4,2.4-6.8,3.7-10.2.3-2.7.6-5.3.9-8h.1Z"/>
  </g>
  <g id="Calque_2" class="st3">
    <image class="st1" width="1296" height="1056" transform="scale(.2)" xlink:href="../Fichier 10@4x-8.png"/>
  </g>
  <path class="st0" d="M162.4,187.7l13.4,24.7,24.1,12.9-23.5,14.5-14.9,24-13.4-23.6-24.2-14,24.2-13.6,14.3-24.8h0ZM152.4,224c-1.2.7-2.4,1.3-3.4,1.7,1.9.8,5,2.5,7.9,5.5,2.7,2.8,4.2,5.7,5,7.5.8-1.9,2.4-4.8,5.2-7.7,2.9-2.9,5.9-4.5,7.8-5.3-1.7-.6-4.8-1.9-7.8-4.8-3.1-3.1-4.5-6.4-5.1-8.2-.4,1.1-1,2.3-1.8,3.6-1.2,1.9-2.5,3.4-3.6,4.5-1,1-2.4,2.2-4.2,3.2Z"/>
  <path class="st4" d="M-201,12.1c2.6-6.1,5.1-12.2,7.7-18.3h-7c-.2,6.1-.5,12.2-.7,18.3Z"/>
  <path class="st4" d="M-213.7,22.9l-7.4,19.6h7.6c0-6.5-.1-13.1-.2-19.6h0Z"/>
  <path class="st5" d="M-221.8,80.5c-1.2,0-2.8,1.3-3.6,2.9l-5.5,11.1.8,2.9h17.4c1.2,0,2.8-1.3,3.6-2.9l5.5-11.1-.8-2.9h-17.4Z"/>
  <path class="st5" d="M-212.7,105h-17.4l-.8,2.9,5.5,11.1c.8,1.6,2.4,2.9,3.6,2.9h17.4l.8-2.9-5.5-11.1c-.8-1.6-2.4-2.9-3.6-2.9Z"/>
  <g>
    <g>
      <path class="st5" d="M208.3,146.3l13.2,3.4c1.3-2.9,2.7-5.9,4-8.8l-15.8-1.8.3-2.5,16.5,1.9c2.2-5.4,4.3-10.8,6.5-16.2-5.1-19.4-10.1-38.7-15.2-58.1-5-10.6-10.1-21.2-15.1-31.8-2.8-5.6-5.6-11.3-8.4-16.9h-4c-6,15.1-12,30.3-18,45.4-1,.7-1.9,1.4-2.9,2.1h-6.2c0,23.5.2,46.9.2,70.4,1.9,0,3.8,0,5.7,0,.4.8.9,1.5,1.3,2.3-1.1,1.1-2.3,2.2-3.5,3.3-1.3,1.2-2.6,2.3-3.8,3.3,0,5.7-.1,11.5-.2,17.2h8.7c3.2,4.8,6.5,9.6,9.7,14.4h3.7c3.4-4.7,6.7-9.5,10.1-14.2,7.1,0,14.2.1,21.3.2,1.3-2.7,2.7-5.3,4-8l-12.7-3.3.6-2.3ZM201.2,131.8h-1.9c-2.6,6.1-5.1,12.2-7.7,18.3.2-6.1.5-12.2.7-18.3h-8.5l-.8-2.9,5.5-11.1c.8-1.6,2.4-2.9,3.6-2.9h4l7.4-19.6c0,6.5.1,13.1.2,19.6h5.9l.8,2.9-5.5,11.1c-.8,1.6-2.4,2.9-3.6,2.9h0Z"/>
      <path class="st5" d="M163.1,142.3l-6.7-6.7c.4-.7.8-1.5,1.2-2.2h6.1c-.1-23.5-.3-47-.4-70.4h-7.9l-2.9-2.1-18-45.3h-4c-2.8,5.6-8.4,16.8-8.4,16.8v2.5l4.5,7.2-1.1,1.7h-7.7l-1.6.9c-3.1,6.5-6.3,13-9.4,19.5-5.1,19.4-10.1,38.7-15.2,58.1l6.1,15.3c.3.9.7,1.7,1.1,2.6l17.7-2,.3,2.5-17,1.9c1.3,3.1,2.7,6,4.1,8.9l14.2-3.7.6,2.4-13.7,3.6c1,2.1,2.1,4.2,3.1,6.2,7.1,0,14.2-.1,21.3-.2,3.4,4.7,6.8,9.5,10.1,14.2h3.7c3.2-4.9,6.5-9.7,9.7-14.5h10.6v-17.2h-.4ZM143,131.8h-17.4c-1.2,0-2.8-1.3-3.6-2.9l-5.5-11.1.8-2.9h17.4c1.2,0,2.8,1.3,3.6,2.9l5.5,11.1-.8,2.9Z"/>
    </g>
    <path class="st5" d="M221.5,149.8c2.9.8,5.8,1.5,8.8,2.2s5.8,1.5,8.8,2.2l-.6,2.4c-6-1.5-12-3.1-18-4.6l1.1-2.3h-.1Z"/>
    <path class="st5" d="M226.6,138.6c13.2,1.5,26.4,2.9,39.7,4.4l-.3,2.5c-13.5-1.5-26.9-3-40.4-4.5.3-.8.7-1.6,1-2.4h0Z"/>
    <path class="st5" d="M87.3,155.8l.6,2.4c5.7-1.5,11.3-2.9,17-4.4-.4-.8-.7-1.5-1.1-2.3l-16.5,4.3Z"/>
    <path class="st5" d="M60.1,144.5l.3,2.5c13.1-1.5,26.2-2.9,39.3-4.4-.3-.8-.7-1.6-1-2.4-12.9,1.4-25.7,2.9-38.6,4.3h0Z"/>
  </g>
</svg>