<?xml version="1.0" encoding="UTF-8"?>
<svg id="Calque_2" xmlns="http://www.w3.org/2000/svg" version="1.1" viewBox="0 0 410.9 268">
  <!-- Generator: Adobe Illustrator 29.2.1, SVG Export Plug-In . SVG Version: 2.1.0 Build 116)  -->
  <defs>
    <style>
      .st0 {
        fill: #fff2b9;
      }
    </style>
  </defs>
  <g id="Calque_1-2">
    <path class="st0" d="M205.9,191.9l13.4,24.7,24.1,12.9-23.5,14.5-14.9,24-13.4-23.6-24.2-14,24.2-13.6,14.3-24.8h0ZM200.1,225.1c-2.9,2.7-5.8,4.1-7.6,4.8,1.9.8,5,2.5,7.9,5.5,2.7,2.8,4.2,5.7,5,7.5.8-1.9,2.4-4.8,5.2-7.7,2.9-2.9,5.9-4.5,7.8-5.3-1.7-.6-4.8-1.9-7.8-4.8-3.1-3.1-4.5-6.4-5.1-8.2-.7,1.9-2.3,5.1-5.5,8.1h.1Z"/>
    <path class="st0" d="M287.8,201l2,22.2,13.5,17-21.7,3.2-18.4,12.8-2.3-21.4-13.2-17.8,21.9-2.3,18.2-13.6h0ZM273.1,223.4c-3,1.1-5.5,1.2-7,1.1,1.1,1.2,2.9,3.4,4,6.5,1.1,2.9,1.3,5.5,1.3,7,1.2-1.1,3.3-2.7,6.2-4,3-1.2,5.7-1.4,7.4-1.4-1-1-2.9-2.9-4.2-6-1.3-3.2-1.3-6.1-1.1-7.6-1.1,1.2-3.3,3-6.6,4.2h0v.2h0Z"/>
    <path class="st0" d="M125,201h0l18.2,13.6,21.9,2.3-13.2,17.8-2.3,21.4-18.4-12.8-21.7-3.2,13.5-17,2-22.2h0ZM139.6,223.3h0c-3.3-1.2-5.4-3-6.6-4.2.1,1.5.1,4.4-1.1,7.6-1.3,3.1-3.1,5-4.2,6,1.6,0,4.3.2,7.4,1.4,2.9,1.2,5,2.8,6.2,4,0-1.6.2-4.1,1.3-7,1.2-3.1,2.9-5.3,4-6.5-1.5,0-4.1,0-7.1-1.1h0v-.2h.1Z"/>
  </g>
</svg>