<?xml version="1.0" encoding="UTF-8"?>
<svg id="Calque_2" xmlns="http://www.w3.org/2000/svg" version="1.1" viewBox="0 0 410.9 268">
  <!-- Generator: Adobe Illustrator 29.2.1, SVG Export Plug-In . SVG Version: 2.1.0 Build 116)  -->
  <defs>
    <style>
      .st0 {
        fill: #fff2b9;
      }

      .st1 {
        fill: #6d6d6d;
      }
    </style>
  </defs>
  <g id="Calque_1-2">
    <path class="st1" d="M205.9,191.9l13.4,24.7,24.1,12.9-23.5,14.5-14.9,24-13.4-23.6-24.2-14,24.2-13.6,14.3-24.8h0ZM195.9,228.3c-1.2.7-2.4,1.3-3.4,1.7,1.9.8,5,2.5,7.9,5.5,2.7,2.8,4.2,5.7,5,7.5.8-1.9,2.4-4.8,5.2-7.7,2.9-2.9,5.9-4.5,7.8-5.3-1.7-.6-4.8-1.9-7.8-4.8-3.1-3.1-4.5-6.4-5.1-8.2-.4,1.1-1,2.3-1.8,3.6-1.2,1.9-2.5,3.4-3.6,4.5s-2.4,2.2-4.2,3.2h0Z"/>
  </g>
  <path class="st1" d="M290.7,199.1l1.1,24.1,13.8,19-23.6,2.4-20.5,13-1.5-23.3-13.5-19.9,23.8-1.4,20.4-13.8h0ZM269.3,223.5c-1.2.1-2.3,0-3.2,0,1.2,1.3,2.9,3.8,4,7.2,1,3.2,1.1,6,1.1,7.7,1.3-1.2,3.7-2.8,6.9-4,3.3-1.2,6.3-1.3,8-1.2-1.1-1.1-3-3.3-4.2-6.6-1.2-3.6-1.1-6.6-.9-8.3-.7.7-1.7,1.4-2.8,2.1-1.6,1-3.2,1.7-4.5,2.1-1.2.4-2.7.8-4.5.9h.1Z"/>
  <path class="st0" d="M122.3,199.1h0l20.4,13.9,23.8,1.4-13.5,19.9-1.5,23.3-20.5-13-23.6-2.4,13.8-19,1.1-24.1h0ZM139.3,222.5c-1.2-.4-2.8-1.1-4.5-2.1-1.1-.7-2-1.5-2.8-2.1.2,1.6.4,4.7-.9,8.3-1.2,3.4-3.1,5.5-4.2,6.6,1.8,0,4.7,0,8,1.2s5.6,2.8,6.9,4c0-1.7,0-4.5,1.1-7.7,1.1-3.4,2.9-5.9,4-7.2-.9,0-2,.1-3.2,0-1.8-.2-3.3-.5-4.5-.9h0Z"/>
</svg>