<?xml version="1.0" encoding="UTF-8"?>
<svg id="Calque_2" xmlns="http://www.w3.org/2000/svg" version="1.1" viewBox="0 0 410.9 268">
  <!-- Generator: Adobe Illustrator 29.2.1, SVG Export Plug-In . SVG Version: 2.1.0 Build 116)  -->
  <defs>
    <style>
      .st0 {
        fill: none;
        stroke: #ffd235;
        stroke-miterlimit: 10;
        stroke-width: 5px;
      }

      .st1 {
        fill: #fff2b9;
      }

      .st2 {
        fill: #ffd235;
      }

      .st3 {
        fill: #5dd85d;
      }
    </style>
  </defs>
  <g id="Calque_1-2">
    <g id="Feuille1">
      <line class="st0" x1="78.9" y1="211.1" x2="106.1" y2="224.3"/>
      <line class="st0" x1="42.7" y1="176.9" x2="79.5" y2="211.5"/>
      <line class="st0" x1="25.8" y1="143.7" x2="43.2" y2="177.5"/>
      <line class="st0" x1="29" y1="74.2" x2="26.1" y2="145"/>
      <line class="st0" x1="51" y1="23.7" x2="28.8" y2="75.1"/>
      <path class="st2" d="M44,215.2c-3-.6-5.9-1.1-8.9-1.7-3-1.5-5.9-2.9-8.9-4.4-2.3-2.9-4.7-5.9-7-8.8,2.6-2.8,5.2-5.6,7.9-8.5,2.7-1.7,5.5-3.3,8.2-5,4.5.1,9,.2,13.5.3,4.9,3.2,9.9,6.4,14.8,9.6l-10.2,11.7c-3.1,2.3-6.3,4.5-9.4,6.8h0Z"/>
      <path class="st2" d="M18.6,176.5c-2.3-.9-4.6-1.9-7-2.8-2.2-1.7-4.3-3.3-6.5-5-1.4-2.8-2.8-5.5-4.2-8.3,2.6-1.9,5.2-3.7,7.8-5.6,2.5-.9,5-1.8,7.5-2.7,3.6.8,7.3,1.6,10.9,2.5,3.5,3.4,7,6.8,10.5,10.2-3.4,2.6-6.8,5.2-10.2,7.9-2.9,1.3-5.8,2.7-8.8,4v-.2h0Z"/>
      <path class="st2" d="M4.6,134.3c-1-2.1-2.1-4.1-3.1-6.2-.5-2.5-1-4.9-1.5-7.4.7-2.8,1.4-5.5,2.1-8.3,2.9.3,5.8.5,8.7.8,2.3.9,4.6,1.7,6.8,2.6,2,2.8,4.1,5.5,6.1,8.3.4,4.5.8,8.9,1.1,13.4-3.9-.2-7.9-.5-11.8-.7-2.8-.8-5.6-1.7-8.5-2.5h.1Z"/>
      <path class="st2" d="M9.5,92.5c-.6-1.9-1.2-3.9-1.9-5.8,0-2.2-.2-4.4-.3-6.7,1-2.3,2-4.7,3-7,2.5.6,5,1.3,7.6,1.9,1.9,1.1,3.8,2.2,5.6,3.2,1.4,2.7,2.8,5.4,4.2,8.1-.3,4-.6,7.9-.9,11.9-3.4-.8-6.8-1.5-10.3-2.3-2.4-1.1-4.7-2.3-7.1-3.4h.1Z"/>
      <path class="st2" d="M22.5,50c0-1.8-.2-3.6-.3-5.4.4-1.9.9-3.9,1.3-5.8,1.4-1.8,2.8-3.6,4.2-5.3,2,1.1,4,2.3,6.1,3.4l4.1,4.1c.6,2.6,1.2,5.3,1.7,7.9-1.2,3.3-2.3,6.7-3.5,10-2.8-1.4-5.5-2.9-8.3-4.3-1.8-1.5-3.5-3-5.3-4.5h0Z"/>
      <path class="st2" d="M45.8,10c1.4-1.6,2.7-3.2,4.1-4.8,1.9-1.3,3.8-2.6,5.7-3.9C58.2.9,60.8.5,63.3,0c.8,2.5,1.7,5.1,2.5,7.6,0,2.2.2,4.5.3,6.7-1.6,2.7-3.2,5.4-4.8,8.1-3.6,1.9-7.2,3.8-10.8,5.8-1.2-3.4-2.4-6.8-3.7-10.2-.3-2.7-.6-5.3-.9-8h-.1Z"/>
    </g>
    <g id="Feuille11">
      <line class="st0" x1="332" y1="211.4" x2="304.8" y2="224.6"/>
      <line class="st0" x1="368.2" y1="177.1" x2="331.4" y2="211.8"/>
      <line class="st0" x1="385.1" y1="143.9" x2="367.7" y2="177.9"/>
      <line class="st0" x1="381.8" y1="74.4" x2="384.8" y2="145.3"/>
      <line class="st0" x1="359.9" y1="24" x2="382" y2="75.3"/>
      <path class="st2" d="M366.9,215.4c3-.6,5.9-1.1,8.9-1.7,3-1.5,5.9-2.9,8.9-4.4,2.3-2.9,4.7-5.9,7-8.8-2.6-2.8-5.2-5.6-7.9-8.5-2.7-1.7-5.5-3.3-8.2-5-4.5.1-9,.2-13.5.3-4.9,3.2-9.9,6.4-14.8,9.6,3.4,3.9,6.8,7.8,10.2,11.7,3.1,2.3,6.3,4.5,9.4,6.8h0Z"/>
      <path class="st2" d="M392.3,176.8c2.3-.9,4.6-1.9,7-2.8,2.2-1.7,4.3-3.3,6.5-5,1.4-2.8,2.8-5.5,4.2-8.3-2.6-1.9-5.2-3.7-7.8-5.6-2.5-.9-5-1.8-7.5-2.7-3.6.8-7.3,1.6-10.9,2.5-3.5,3.4-7,6.8-10.5,10.2,3.4,2.6,6.8,5.2,10.2,7.9,2.9,1.3,5.8,2.7,8.8,4v-.2h0Z"/>
      <path class="st2" d="M406.3,134.6c1-2.1,2.1-4.1,3.1-6.2.5-2.5,1-4.9,1.5-7.4-.7-2.8-1.4-5.5-2.1-8.3-2.9.3-5.8.5-8.7.8-2.3.9-4.6,1.7-6.8,2.6-2,2.8-4.1,5.5-6.1,8.3-.4,4.5-.8,8.9-1.1,13.4,3.9-.2,7.9-.5,11.8-.7,2.8-.8,5.6-1.7,8.5-2.5h-.1,0Z"/>
      <path class="st2" d="M401.4,92.8c.6-1.9,1.2-3.9,1.9-5.8,0-2.2.2-4.4.3-6.7-1-2.3-2-4.7-3-7-2.5.6-5,1.3-7.6,1.9-1.9,1.1-3.8,2.2-5.6,3.2-1.4,2.7-2.8,5.4-4.2,8.1.3,4,.6,7.9.9,11.9,3.4-.8,6.8-1.5,10.3-2.3,2.4-1.1,4.7-2.3,7.1-3.4h-.1s0,0,0,0h0Z"/>
      <path class="st2" d="M388.3,50.3c0-1.8.2-3.6.3-5.4-.4-1.9-.9-3.9-1.3-5.8-1.4-1.8-2.8-3.6-4.2-5.3-2,1.1-4,2.3-6.1,3.4-1.4,1.4-2.7,2.7-4.1,4.1-.6,2.6-1.2,5.3-1.7,7.9,1.2,3.3,2.3,6.7,3.5,10,2.8-1.4,5.5-2.9,8.3-4.3,1.8-1.5,3.5-3,5.3-4.5h0s0,0,0,0h0Z"/>
      <path class="st2" d="M365.1,10.3c-1.4-1.6-2.7-3.2-4.1-4.8-1.9-1.3-3.8-2.6-5.7-3.9-2.6-.4-5.2-.8-7.7-1.3-.8,2.5-1.7,5.1-2.5,7.6,0,2.2-.2,4.5-.3,6.7,1.6,2.7,3.2,5.4,4.8,8.1,3.6,1.9,7.2,3.8,10.8,5.8,1.2-3.4,2.4-6.8,3.7-10.2.3-2.7.6-5.3.9-8h.1Z"/>
    </g>
    <path class="st1" d="M205.9,191.9l13.4,24.7,24.1,12.9-23.5,14.5-14.9,24-13.4-23.6-24.2-14,24.2-13.6,14.3-24.8h0q0,0,0,0h0ZM200.1,225.1c-2.9,2.7-5.8,4.1-7.6,4.8,1.9.8,5,2.5,7.9,5.5,2.7,2.8,4.2,5.7,5,7.5.8-1.9,2.4-4.8,5.2-7.7,2.9-2.9,5.9-4.5,7.8-5.3-1.7-.6-4.8-1.9-7.8-4.8-3.1-3.1-4.5-6.4-5.1-8.2-.7,1.9-2.3,5.1-5.5,8.1h.1q0,0,0,0h0Z"/>
    <g>
      <g>
        <path class="st3" d="M262.5,166.9l16.2,4.2c1.6-3.6,3.3-7.3,4.9-10.8l-19.4-2.2.4-3.1,20.3,2.3c2.7-6.6,5.3-13.3,8-19.9-6.3-23.8-12.4-47.6-18.7-71.4-6.1-13-12.4-26.1-18.6-39.1-3.4-6.9-6.9-13.9-10.3-20.8h-4.9c-7.4,18.6-14.8,37.2-22.1,55.8-1.2.9-2.3,1.7-3.6,2.6h-7.6c0,28.9.2,57.7.2,86.5h7c.5,1,1.1,1.8,1.6,2.8-1.4,1.4-2.8,2.7-4.3,4.1-1.6,1.5-3.2,2.8-4.7,4.1,0,7-.1,14.1-.2,21.1h10.7c3.9,5.9,8,11.8,11.9,17.7h4.5c4.2-5.8,8.2-11.7,12.4-17.5,8.7,0,17.5.1,26.2.2,1.6-3.3,3.3-6.5,4.9-9.8l-15.6-4.1.7-2.8h.1ZM253.8,149.1h-2.3c-3.2,7.5-6.3,15-9.5,22.5.2-7.5.6-15,.9-22.5h-10.4l-1-3.6,6.8-13.6c1-2,3-3.6,4.4-3.6h4.9l9.1-24.1c0,8,.1,16.1.2,24.1h7.3l1,3.6-6.8,13.6c-1,2-3,3.6-4.4,3.6h-.2Z"/>
        <path class="st3" d="M207,162l-8.2-8.2c.5-.9,1-1.8,1.5-2.7h7.5c-.1-28.9-.4-57.8-.5-86.5h-9.7l-3.6-2.6-22.1-55.7h-4.9c-3.4,6.9-10.3,20.7-10.3,20.7v3.1l5.5,8.9-1.4,2.1h-9.5l-2,1.1c-3.8,8-7.7,16-11.6,24-6.3,23.8-12.4,47.6-18.7,71.4l7.5,18.8c.4,1.1.9,2.1,1.4,3.2l21.8-2.5.4,3.1-20.9,2.3c1.6,3.8,3.3,7.4,5,10.9l17.5-4.5.7,3-16.8,4.4c1.2,2.6,2.6,5.2,3.8,7.6,8.7,0,17.5-.1,26.2-.2,4.2,5.8,8.4,11.7,12.4,17.5h4.5c3.9-6,8-11.9,11.9-17.8h13v-21.1h-.5v-.3ZM182.3,149.1h-21.4c-1.5,0-3.4-1.6-4.4-3.6l-6.8-13.6,1-3.6h21.4c1.5,0,3.4,1.6,4.4,3.6l6.8,13.6-1,3.6Z"/>
      </g>
      <path class="st3" d="M278.7,171.2c3.6,1,7.1,1.8,10.8,2.7s7.1,1.8,10.8,2.7l-.7,3c-7.4-1.8-14.8-3.8-22.1-5.7l1.4-2.8h-.1c0,.1,0,.1,0,.1Z"/>
      <path class="st3" d="M285,157.4c16.2,1.8,32.5,3.6,48.8,5.4l-.4,3.1c-16.6-1.8-33.1-3.7-49.7-5.5.4-1,.9-2,1.2-3h.1Z"/>
      <path class="st3" d="M113.8,178.6l.7,3c7-1.8,13.9-3.6,20.9-5.4-.5-1-.9-1.8-1.4-2.8l-20.3,5.3h.1Z"/>
      <path class="st3" d="M80.3,164.7l.4,3.1c16.1-1.8,32.2-3.6,48.3-5.4-.4-1-.9-2-1.2-3-15.9,1.7-31.6,3.6-47.4,5.3h0Z"/>
    </g>
    <path class="st1" d="M287.8,201l2,22.2,13.5,17-21.7,3.2-18.4,12.8-2.3-21.4-13.2-17.8,21.9-2.3,18.2-13.6h0ZM273.1,223.4c-3,1.1-5.5,1.2-7,1.1,1.1,1.2,2.9,3.4,4,6.5,1.1,2.9,1.3,5.5,1.3,7,1.2-1.1,3.3-2.7,6.2-4,3-1.2,5.7-1.4,7.4-1.4-1-1-2.9-2.9-4.2-6-1.3-3.2-1.3-6.1-1.1-7.6-1.1,1.2-3.3,3-6.6,4.2h0c0,.1,0,.2,0,.2Z"/>
    <path class="st1" d="M125,201h0l18.2,13.6,21.9,2.3-13.2,17.8-2.3,21.4-18.4-12.8-21.7-3.2,13.5-17,2-22.2h0ZM139.6,223.3h0c-3.3-1.2-5.4-3-6.6-4.2.1,1.5.1,4.4-1.1,7.6-1.3,3.1-3.1,5-4.2,6,1.6,0,4.3.2,7.4,1.4,2.9,1.2,5,2.8,6.2,4,0-1.6.2-4.1,1.3-7,1.2-3.1,2.9-5.3,4-6.5-1.5,0-4.1,0-7.1-1.1h0v-.2Z"/>
  </g>
</svg>