<svg width="173" height="177" viewBox="0 0 173 177" fill="none" xmlns="http://www.w3.org/2000/svg">
<path d="M94.0811 14L164.662 40.5L173 136.25L94.0811 177L13 136.25L23.5 54.75L94.0811 14Z" fill="#AEA787"/>
<path d="M81.0811 0L151.662 26.5L160 122.25L81.0811 163L0 122.25L10.5 40.75L81.0811 0Z" fill="#E6DCB0"/>
<rect x="124" y="121.6" width="8.4" height="8.4" fill="#E6DCB0"/>
<rect x="140.8" y="104.8" width="8.4" height="8.4" fill="#E6DCB0"/>
<rect x="140.8" y="96.4" width="8.4" height="8.4" fill="#E6DCB0"/>
<rect x="140.8" y="88" width="8.4" height="8.4" fill="#E6DCB0"/>
<rect x="132.4" y="113.2" width="8.4" height="8.4" fill="#E6DCB0"/>
<path fill-rule="evenodd" clip-rule="evenodd" d="M79.0024 30H82.4966L92.7124 56.7531V61.0261L84.1307 58.0235V76.2091H102.977L99.9739 67.6274H104.247L131 78.3423V81.8365L104.247 92.0523H99.9739L102.977 83.4705H84.1307V102.977L92.7125 99.9739V104.247L81.9976 131H78.5034L68.2876 104.247V99.9739L76.8692 102.977V83.4705H58.0234L61.0261 92.0523H56.7531L30 81.3374V77.8431L56.7531 67.6274H61.0261L58.0235 76.2091H76.8692V58.0234L68.2875 61.0261V56.7531L79.0024 30Z" fill="#717969"/>
</svg>
