<svg width="172" height="179" viewBox="0 0 172 179" fill="none" xmlns="http://www.w3.org/2000/svg">
<path d="M93.0811 15.275L163.662 41.775L172 137.525L93.0811 178.275L12 137.525L22.5 56.025L93.0811 15.275Z" fill="#398839"/>
<path d="M81.0811 0L151.662 26.5L160 122.25L81.0811 163L0 122.25L10.5 40.75L81.0811 0Z" fill="#5DD85D"/>
<path d="M47 87.5246L65.2677 69.1639V57H86.5039V66.8689L105 87.5246L100.89 114.607L81.4803 127H60.7008L47 106.574V87.5246Z" fill="#233739"/>
<path d="M107 39L101.609 43.3291H94.4203L85.4348 39L76 46.0633V57" stroke="#233739" stroke-width="4"/>
<rect x="96.9998" y="26.4548" width="2.75744" height="11.0297" transform="rotate(-31.8429 96.9998 26.4548)" fill="#233739"/>
<rect x="110.236" y="43.7483" width="2.75744" height="11.0297" transform="rotate(-53.0514 110.236 43.7483)" fill="#233739"/>
<rect x="111.444" y="36.4973" width="2.75744" height="11.0297" transform="rotate(-135 111.444 36.4973)" fill="#233739"/>
<rect x="124" y="122.6" width="8.4" height="8.4" fill="#BCFABC"/>
<rect x="140.8" y="105.8" width="8.4" height="8.4" fill="#BCFABC"/>
<rect x="140.8" y="97.4" width="8.4" height="8.4" fill="#BCFABC"/>
<rect x="140.8" y="89" width="8.4" height="8.4" fill="#BCFABC"/>
<rect x="132.4" y="114.2" width="8.4" height="8.4" fill="#BCFABC"/>
</svg>
