<svg width="172" height="179" viewBox="0 0 172 179" fill="none" xmlns="http://www.w3.org/2000/svg">
<path d="M93.0811 15.275L163.662 41.775L172 137.525L93.0811 178.275L12 137.525L22.5 56.025L93.0811 15.275Z" fill="#398839"/>
<path d="M81.0811 0L151.662 26.5L160 122.25L81.0811 163L0 122.25L10.5 40.75L81.0811 0Z" fill="#5DD85D"/>
<rect x="124" y="122.6" width="8.4" height="8.4" fill="#BCFABC"/>
<rect x="140.8" y="105.8" width="8.4" height="8.4" fill="#BCFABC"/>
<rect x="140.8" y="97.4" width="8.4" height="8.4" fill="#BCFABC"/>
<rect x="140.8" y="89" width="8.4" height="8.4" fill="#BCFABC"/>
<rect x="132.4" y="114.2" width="8.4" height="8.4" fill="#BCFABC"/>
<path fill-rule="evenodd" clip-rule="evenodd" d="M83.9289 51.3047L116.436 41L124.209 75.2692L104.187 111.695L83.9289 122L60.6089 107.861L42 71.6746L47.8889 41L83.9289 51.3047ZM109.568 50.4495L109.327 49.3915L108.292 49.718L83.7201 57.4716L56.4487 49.7098L55.3996 49.4113L55.193 50.4823L50.6897 73.8316L50.6241 74.1719L50.7832 74.4799L65.0135 102.025L65.1433 102.276L65.3853 102.422L83.2182 113.185L83.6925 113.471L84.1867 113.221L99.6779 105.377L99.9527 105.237L100.102 104.968L115.413 77.2406L115.597 76.9068L115.512 76.535L109.568 50.4495ZM52.7192 73.8699L56.9503 51.932L83.4612 59.4773L83.7498 59.5595L84.0359 59.4692L107.859 51.9518L113.478 76.6076L98.4997 103.731L83.7774 111.186L66.6607 100.856L52.7192 73.8699Z" fill="#233739"/>
</svg>
