<svg width="140" height="145" viewBox="0 0 140 145" fill="none" xmlns="http://www.w3.org/2000/svg">
<path d="M75.8784 12L133.225 33.6227L140 111.75L75.8784 145L10 111.75L18.5312 45.25L75.8784 12Z" fill="#AEA787"/>
<path d="M65.8784 0L123.225 21.4601L130 99L65.8784 132L0 99L8.53125 33L65.8784 0Z" fill="#E6DCB0"/>
<path d="M43 70.4197L57.4882 55.7311V46H74.3307V53.8951L89 70.4197L85.7402 92.0852L70.3465 102H53.8661L43 85.659V70.4197Z" fill="#233739" fill-opacity="0.6"/>
<path d="M91 32L86.6522 35.3671H80.8551L73.6087 32L66 37.4937V46" stroke="#233739" stroke-opacity="0.6" stroke-width="4"/>
<rect x="82.7058" y="22.1553" width="2.18973" height="8.75891" transform="rotate(-31.8429 82.7058 22.1553)" fill="#233739" fill-opacity="0.6"/>
<rect x="93.2166" y="35.8883" width="2.18973" height="8.75891" transform="rotate(-53.0514 93.2166 35.8883)" fill="#233739" fill-opacity="0.6"/>
<rect x="94.1763" y="30.1301" width="2.18973" height="8.75891" transform="rotate(-135 94.1763 30.1301)" fill="#233739" fill-opacity="0.6"/>
</svg>
