<svg width="173" height="177" viewBox="0 0 173 177" fill="none" xmlns="http://www.w3.org/2000/svg">
<path d="M94.0811 14L164.662 40.5L173 136.25L94.0811 177L13 136.25L23.5 54.75L94.0811 14Z" fill="#398839"/>
<path d="M81.0811 0L151.662 26.5L160 122.25L81.0811 163L0 122.25L10.5 40.75L81.0811 0Z" fill="#5DD85D"/>
<rect x="124" y="121.6" width="8.4" height="8.4" fill="#BCFABC"/>
<rect x="140.8" y="104.8" width="8.4" height="8.4" fill="#BCFABC"/>
<rect x="140.8" y="96.4" width="8.4" height="8.4" fill="#BCFABC"/>
<rect x="140.8" y="88" width="8.4" height="8.4" fill="#BCFABC"/>
<rect x="132.4" y="113.2" width="8.4" height="8.4" fill="#BCFABC"/>
<path fill-rule="evenodd" clip-rule="evenodd" d="M116.915 57.7794H44.2983L56.106 123.902H107.469L116.915 57.7794ZM98.1947 66.3638L92.5861 117.727L97.5565 118.27L103.165 66.9066L98.1947 66.3638ZM66.4929 119.175L57.8556 68.2339L62.7852 67.398L71.4226 118.339L66.4929 119.175ZM79.8552 64.8193L78.9314 116.48L83.9306 116.569L84.8544 64.9087L79.8552 64.8193Z" fill="#233739"/>
<path fill-rule="evenodd" clip-rule="evenodd" d="M89.1676 32.0979L73.8177 37.7065V44.2007H40.7562L36.6235 53.6468H124V44.2007H89.1676V32.0979Z" fill="#233739"/>
</svg>
