<svg width="173" height="177" viewBox="0 0 173 177" fill="none" xmlns="http://www.w3.org/2000/svg">
<path d="M94.0811 14L164.662 40.5L173 136.25L94.0811 177L13 136.25L23.5 54.75L94.0811 14Z" fill="#AEA787"/>
<path d="M81.0811 0L151.662 26.5L160 122.25L81.0811 163L0 122.25L10.5 40.75L81.0811 0Z" fill="#E6DCB0"/>
<path fill-rule="evenodd" clip-rule="evenodd" d="M53.938 29.0924L48.4051 38.4065L45.7619 42.8558L50.5353 44.8553L54.6777 46.5905L81.5767 110.729L80.2493 112.139L78.9774 113.491L79.028 115.346L79.3717 127.955L79.4576 131.107L82.4504 132.102L88.1958 134.012L91.5674 135.133L93.4398 132.113L97.0596 126.276L89.4107 121.533L88.251 123.403L88.0752 116.956L89.1088 115.858L89.1435 115.843L89.137 115.827L109.19 94.5199L110.513 93.1137L110.406 91.1857L109.477 74.5026L109.434 73.7279L109.134 73.0124L102.972 58.3186L102.504 57.2037L101.541 56.4733L84.075 43.229L83.1396 42.5197L81.977 42.3577L60.8349 39.412L58.7858 38.5537L61.6757 33.689L53.938 29.0924ZM85.3273 106.743L101.313 89.758L100.534 75.7776L95.1397 62.9142L79.5724 51.1096L60.9041 48.5086L85.3273 106.743Z" fill="#717969"/>
<path fill-rule="evenodd" clip-rule="evenodd" d="M52.644 77.249L67.5873 81.3217L115.082 59.6067L105.161 56.9028L131 52L111.561 74.2842L114.261 64.3806L69.7301 84.7402L68.2586 90.1393L52.6016 106.722L49.7588 87.8352L31.2775 82.7983L52.644 77.249ZM115.52 59.7601L115.529 59.7284L115.502 59.7212L115.52 59.7601Z" fill="#717969"/>
</svg>
