<svg width="173" height="177" viewBox="0 0 173 177" fill="none" xmlns="http://www.w3.org/2000/svg">
<path d="M94.0811 14L164.662 40.5L173 136.25L94.0811 177L13 136.25L23.5 54.75L94.0811 14Z" fill="#AEA787"/>
<path d="M81.0811 0L151.662 26.5L160 122.25L81.0811 163L0 122.25L10.5 40.75L81.0811 0Z" fill="#E6DCB0"/>
<rect x="124" y="121.6" width="8.4" height="8.4" fill="#E6DCB0"/>
<rect x="140.8" y="104.8" width="8.4" height="8.4" fill="#E6DCB0"/>
<rect x="140.8" y="96.4" width="8.4" height="8.4" fill="#E6DCB0"/>
<rect x="140.8" y="88" width="8.4" height="8.4" fill="#E6DCB0"/>
<rect x="132.4" y="113.2" width="8.4" height="8.4" fill="#E6DCB0"/>
<path fill-rule="evenodd" clip-rule="evenodd" d="M116.292 59.6815H43.6748L55.4824 125.804H106.846L116.292 59.6815ZM97.5711 68.2659L91.9625 119.629L96.933 120.172L102.542 68.8087L97.5711 68.2659ZM65.8694 121.077L57.232 70.136L62.1617 69.3001L70.799 120.241L65.8694 121.077ZM79.2317 66.7214L78.3078 118.382L83.307 118.471L84.2309 66.8108L79.2317 66.7214Z" fill="#717969"/>
<path fill-rule="evenodd" clip-rule="evenodd" d="M88.544 34L73.1941 39.6086V46.1028H40.1327L36 55.5489H123.376V46.1028H88.544V34Z" fill="#717969"/>
</svg>
