<svg width="172" height="179" viewBox="0 0 172 179" fill="none" xmlns="http://www.w3.org/2000/svg">
<path d="M93.0811 15.275L163.662 41.775L172 137.525L93.0811 178.275L12 137.525L22.5 56.025L93.0811 15.275Z" fill="#398839"/>
<path d="M81.0811 0L151.662 26.5L160 122.25L81.0811 163L0 122.25L10.5 40.75L81.0811 0Z" fill="#5DD85D"/>
<rect x="124" y="122.6" width="8.4" height="8.4" fill="#BCFABC"/>
<rect x="140.8" y="105.8" width="8.4" height="8.4" fill="#BCFABC"/>
<rect x="140.8" y="97.4" width="8.4" height="8.4" fill="#BCFABC"/>
<rect x="140.8" y="89" width="8.4" height="8.4" fill="#BCFABC"/>
<rect x="132.4" y="114.2" width="8.4" height="8.4" fill="#BCFABC"/>
<path fill-rule="evenodd" clip-rule="evenodd" d="M70.2162 52.7858V68.9337L110.064 109.754L109.758 110.053H110.215V99.0771L124 123.225L92.1688 110.053H104.767L67.2646 71.6364H60.2513L36.1897 60.6601L57.0917 52.7858V33.2194L70.2162 52.7858Z" fill="#233739"/>
</svg>
