<svg width="140" height="145" viewBox="0 0 140 145" fill="none" xmlns="http://www.w3.org/2000/svg">
<path d="M75.8784 12L133.225 33.6227L140 111.75L75.8784 145L10 111.75L18.5312 45.25L75.8784 12Z" fill="#AEA787"/>
<path d="M65.8784 0L123.225 21.4601L130 99L65.8784 132L0 99L8.53125 33L65.8784 0Z" fill="#E6DCB0"/>
<path opacity="0.6" fill-rule="evenodd" clip-rule="evenodd" d="M65.6819 45.5237L92.5702 37L99 65.3462L82.4384 95.4763L65.6819 104L46.3926 92.3047L31 62.3728L35.8711 37L65.6819 45.5237ZM87.0581 44.7778L86.817 43.7198L85.7822 44.0464L65.5067 50.4442L42.9987 44.0382L41.9496 43.7396L41.743 44.8106L38.0181 64.1242L37.9524 64.4646L38.1116 64.7726L49.8823 87.5566L50.0121 87.8077L50.2541 87.9538L65.0048 96.8562L65.479 97.1424L65.9732 96.8922L78.787 90.404L79.0618 90.2649L79.2106 89.9952L91.8754 67.0603L92.0597 66.7265L91.975 66.3547L87.0581 44.7778ZM40.0476 64.1626L43.5003 46.2604L65.2477 52.45L65.5363 52.5321L65.8224 52.4418L85.3492 46.2802L89.9403 66.4273L77.6087 88.7588L65.5639 94.8576L51.5295 86.3875L40.0476 64.1626Z" fill="#233739"/>
</svg>
