<svg width="65" height="54" viewBox="0 0 65 54" fill="none" xmlns="http://www.w3.org/2000/svg">
<path d="M53.8543 53.9961H15.1577C12.1396 51.1896 10.3352 49.509 7.31718 46.7025L5.05566 15.8031C7.13108 13.2559 8.35691 11.7534 10.4364 9.20614L54.1052 3.55273C57.0261 5.85703 58.6323 7.12459 61.5532 9.43293L65.0001 41.5756C60.5458 46.5405 58.3046 49.0351 53.8503 54.0001L53.8543 53.9961Z" fill="#255B5C"/>
<path d="M48.7987 50.4433H10.102C7.08394 47.6369 5.27958 45.9562 2.26152 43.1498L0 12.2504C2.07542 9.70313 3.30125 8.20068 5.38071 5.65341L49.0495 0C51.9705 2.30429 53.5766 3.57185 56.4976 5.88019L59.9444 38.0228C55.4902 42.9878 53.2489 45.4824 48.7946 50.4474L48.7987 50.4433Z" fill="#41A7A9"/>
<path d="M42.4046 14.687L24.3388 26.4123L44.561 38.1344L42.4046 14.687Z" fill="white"/>
<path d="M26.5159 13.9766L8.45014 25.7018L28.6724 37.4239L26.5159 13.9766Z" fill="white"/>
<rect x="44.7778" y="41.9211" width="3.61111" height="3.55263" fill="#A6E7E9"/>
<rect x="52" y="34.8157" width="3.61111" height="3.55263" fill="#A6E7E9"/>
<rect x="52" y="31.2632" width="3.61111" height="3.55263" fill="#A6E7E9"/>
<rect x="52" y="27.7104" width="3.61111" height="3.55263" fill="#A6E7E9"/>
<rect x="48.3887" y="38.3684" width="3.61111" height="3.55263" fill="#A6E7E9"/>
</svg>
