<svg width="253" height="81" viewBox="0 0 253 81" fill="none" xmlns="http://www.w3.org/2000/svg">
<path d="M69.6757 80.1268L130.784 72.2516L229.892 72.2516L253 59.8763L253 17.1254L229.892 7.00012L136.946 13.3753L73.7838 7.00012L11.1351 20.1254L6 72.2516L36.8108 80.1268L69.6757 80.1268Z" fill="#398839"/>
<path d="M63.6757 73.1268L124.784 65.2516L223.892 65.2516L247 52.8763L247 10.1254L223.892 0.00012279L130.946 6.37527L67.7838 0.000122288L5.13514 13.1254L2.87388e-07 65.2516L30.8108 73.1268L63.6757 73.1268Z" fill="#5DD85D"/>
<rect x="235.059" y="31.425" width="5.02799" height="5.02799" fill="#BCFABC"/>
<rect x="235.059" y="36.453" width="5.02799" height="5.02799" fill="#BCFABC"/>
<rect x="235.059" y="41.481" width="5.02799" height="5.02799" fill="#BCFABC"/>
<rect x="230.031" y="46.509" width="5.02799" height="5.02799" fill="#BCFABC"/>
<rect x="225.003" y="51.537" width="5.02799" height="5.02799" fill="#BCFABC"/>
</svg>
