<svg width="254" height="80" viewBox="0 0 254 80" fill="none" xmlns="http://www.w3.org/2000/svg">
<path d="M70.5654 80.0001L131.568 72.1386L230.504 72.1386L253.572 59.7847L253.572 17.1078L230.504 7.00012L137.719 13.3642L74.6664 7.00012L12.1262 20.1027L7 72.1386L37.7574 80.0001L70.5654 80.0001Z" fill="#9D5723"/>
<path d="M63.5654 73L124.568 65.1385L223.504 65.1385L246.572 52.7846L246.572 10.1077L223.504 7.18874e-07L130.719 6.3641L67.6664 2.17641e-07L5.12624 13.1026L2.8689e-07 65.1385L30.7574 73L63.5654 73Z" fill="#EC883D"/>
<path d="M61.6479 48.56C59.4195 48.56 57.4712 48.0933 55.8029 47.16C54.1462 46.215 52.857 44.8267 51.9354 42.995C51.0137 41.1517 50.5529 38.8825 50.5529 36.1875C50.5529 33.4225 51.0137 31.1417 51.9354 29.345C52.857 27.5367 54.1462 26.195 55.8029 25.32C57.4712 24.4333 59.4195 23.99 61.6479 23.99C63.8995 23.99 65.8595 24.4508 67.5279 25.3725C69.2079 26.2942 70.5087 27.6592 71.4304 29.4675C72.352 31.2758 72.8129 33.5158 72.8129 36.1875C72.8129 38.9292 72.352 41.2217 71.4304 43.065C70.5087 44.8967 69.2079 46.2733 67.5279 47.195C65.8595 48.105 63.8995 48.56 61.6479 48.56ZM69.0154 54.7725C67.732 54.7725 66.5187 54.4167 65.3754 53.705C64.232 53.005 63.2754 52.0367 62.5054 50.8L60.0904 46.9675L64.2554 44.6225L66.2854 48.035C66.5654 48.49 66.9329 48.805 67.3879 48.98C67.8545 49.1667 68.3387 49.2717 68.8404 49.295C69.3887 49.295 69.9429 49.2308 70.5029 49.1025C71.0629 48.9742 71.6404 48.805 72.2354 48.595L72.2354 54.1775C71.6754 54.3992 71.1329 54.5508 70.6079 54.6325C70.0945 54.7258 69.5637 54.7725 69.0154 54.7725ZM61.6479 43.5375C63.2812 43.5375 64.5879 42.8958 65.5679 41.6125C66.5479 40.3175 67.0379 38.4975 67.0379 36.1525C67.0379 33.9475 66.5479 32.2092 65.5679 30.9375C64.5879 29.6542 63.2812 29.0125 61.6479 29.0125C60.0612 29.0125 58.7779 29.6542 57.7979 30.9375C56.8179 32.2092 56.3279 33.9592 56.3279 36.1875C56.3279 38.5092 56.8179 40.3175 57.7979 41.6125C58.7779 42.8958 60.0612 43.5375 61.6479 43.5375ZM77.0716 24.515L82.6716 24.515L82.6716 38.76C82.6716 40.4283 83.0975 41.63 83.9491 42.365C84.8008 43.1 85.8683 43.4675 87.1516 43.4675C88.4583 43.4675 89.5375 43.1 90.3891 42.365C91.2525 41.63 91.6841 40.4283 91.6841 38.76L91.6841 24.515L97.2666 24.515L97.2666 38.76C97.2666 40.7433 96.8758 42.47 96.0941 43.94C95.3125 45.41 94.1691 46.5475 92.6641 47.3525C91.1591 48.1575 89.3216 48.56 87.1516 48.56C84.9816 48.56 83.1441 48.1575 81.6391 47.3525C80.1458 46.5475 79.0083 45.41 78.2266 43.94C77.4566 42.47 77.0716 40.7433 77.0716 38.76L77.0716 24.515ZM102.762 48L102.762 24.515L108.362 24.515L108.362 48L102.762 48ZM111.567 29.3625L111.567 24.515L130.905 24.515L130.905 29.3625L122.802 29.3625L124.062 28.1025L124.062 48L118.462 48L118.462 28.1025L119.722 29.3625L111.567 29.3625ZM131.323 29.3625L131.323 24.515L150.661 24.515L150.661 29.3625L142.558 29.3625L143.818 28.1025L143.818 48L138.218 48L138.218 28.1025L139.478 29.3625L131.323 29.3625ZM153.792 48L153.792 24.515L169.489 24.515L169.489 29.3625L159.392 29.3625L159.392 33.8775L168.859 33.8775L168.859 38.7425L159.392 38.7425L159.392 43.1L169.489 43.1L169.489 48L153.792 48ZM175.257 48L175.257 24.515L184.427 24.515C187.367 24.515 189.648 25.1917 191.27 26.545C192.903 27.8867 193.72 29.6892 193.72 31.9525C193.72 34.1692 192.903 35.9483 191.27 37.29C189.648 38.62 187.367 39.285 184.427 39.285L180.857 39.285L180.857 48L175.257 48ZM187.507 48L181.785 36.66L187.7 36.66L194.84 48L187.507 48ZM180.857 35.645L183.797 35.645C185.186 35.645 186.224 35.3592 186.912 34.7875C187.612 34.2042 187.962 33.4633 187.962 32.565C187.962 31.6317 187.665 30.8675 187.07 30.2725C186.486 29.6658 185.606 29.3625 184.427 29.3625L180.857 29.3625L180.857 35.645Z" fill="#233739"/>
<rect x="234.651" y="31.3705" width="5.01928" height="5.01928" fill="#F3CCAE"/>
<rect x="234.651" y="36.3898" width="5.01928" height="5.01928" fill="#F3CCAE"/>
<rect x="234.651" y="41.4091" width="5.01928" height="5.01928" fill="#F3CCAE"/>
<rect x="229.632" y="46.4283" width="5.01928" height="5.01928" fill="#F3CCAE"/>
<rect x="224.613" y="51.4476" width="5.01928" height="5.01928" fill="#F3CCAE"/>
</svg>
