<svg width="253" height="80" viewBox="0 0 253 80" fill="none" xmlns="http://www.w3.org/2000/svg">
<path d="M69.6757 80L130.784 72.1385L229.892 72.1385L253 59.7846L253 17.1077L229.892 7L136.946 13.3641L73.7838 7L11.1351 20.1026L6 72.1385L36.8108 80L69.6757 80Z" fill="#255B5C"/>
<path d="M63.6757 73L124.784 65.1385L223.892 65.1385L247 52.7846L247 10.1077L223.892 7.20121e-07L130.946 6.3641L67.7838 2.18018e-07L5.13514 13.1026L2.8689e-07 65.1385L30.8108 73L63.6757 73Z" fill="#41A7A9"/>
<path d="M79.5069 49L79.5069 22.16L89.8069 22.16C92.9002 22.16 95.3535 22.9067 97.1669 24.4C98.9802 25.88 99.8869 28.0733 99.8869 30.98C99.8869 33.8733 98.9802 36.0733 97.1669 37.58C95.3535 39.0733 92.9002 39.82 89.8069 39.82L85.9469 39.82L85.9469 49L79.5069 49ZM85.9469 34.22L89.8069 34.22C90.9669 34.22 91.8402 33.9 92.4269 33.26C93.0269 32.6067 93.3269 31.8467 93.3269 30.98C93.3269 30.1 93.0269 29.3333 92.4269 28.68C91.8402 28.0267 90.9669 27.7 89.8069 27.7L85.9469 27.7L85.9469 34.22ZM110.442 22.16L110.442 43.4L120.582 43.4L120.582 49L104.042 49L104.042 22.16L110.442 22.16ZM122.28 49L131.32 22.16L139.46 22.16L148 49L141.26 49L139.8 44.28L130.54 44.28L129.08 49L122.28 49ZM132.16 39.54L138.34 39.54L135.3 29.72L132.16 39.54ZM147.698 22.16L155.218 22.16L160.378 32.22L159.338 32.22L164.838 22.16L172.338 22.16L162.938 37.86L162.938 49L156.578 49L156.578 37.86L147.698 22.16Z" fill="#233739"/>
<rect x="235" y="31" width="5" height="5" fill="#A6E7E9"/>
<rect x="235" y="36" width="5" height="5" fill="#A6E7E9"/>
<rect x="235" y="41" width="5" height="5" fill="#A6E7E9"/>
<rect x="230" y="46" width="5" height="5" fill="#A6E7E9"/>
<rect x="225" y="51" width="5" height="5" fill="#A6E7E9"/>
</svg>
