<svg width="253" height="80" viewBox="0 0 253 80" fill="none" xmlns="http://www.w3.org/2000/svg">
<path d="M69.6757 80L130.784 72.1385L229.892 72.1385L253 59.7846L253 17.1077L229.892 7L136.946 13.3641L73.7838 7L11.1351 20.1026L6 72.1385L36.8108 80L69.6757 80Z" fill="#255B5C"/>
<path d="M63.6757 73L124.784 65.1385L223.892 65.1385L247 52.7846L247 10.1077L223.892 7.20121e-07L130.946 6.3641L67.7838 2.18018e-07L5.13514 13.1026L2.8689e-07 65.1385L30.8108 73L63.6757 73Z" fill="#41A7A9"/>
<rect x="235" y="31" width="5" height="5" fill="#A6E7E9"/>
<rect x="235" y="36" width="5" height="5" fill="#A6E7E9"/>
<rect x="235" y="41" width="5" height="5" fill="#A6E7E9"/>
<rect x="230" y="46" width="5" height="5" fill="#A6E7E9"/>
<rect x="225" y="51" width="5" height="5" fill="#A6E7E9"/>
</svg>
