<svg width="254" height="80" viewBox="0 0 254 80" fill="none" xmlns="http://www.w3.org/2000/svg">
<path d="M70.5654 80.0001L131.568 72.1386L230.504 72.1386L253.572 59.7847L253.572 17.1078L230.504 7.00012L137.719 13.3642L74.6664 7.00012L12.1262 20.1027L7 72.1386L37.7574 80.0001L70.5654 80.0001Z" fill="#9D5723"/>
<path d="M63.5654 73L124.568 65.1385L223.504 65.1385L246.572 52.7846L246.572 10.1077L223.504 7.18874e-07L130.719 6.3641L67.6664 2.17641e-07L5.12624 13.1026L2.8689e-07 65.1385L30.7574 73L63.5654 73Z" fill="#EC883D"/>
<rect x="234.651" y="31.3705" width="5.01928" height="5.01928" fill="#F3CCAE"/>
<rect x="234.651" y="36.3898" width="5.01928" height="5.01928" fill="#F3CCAE"/>
<rect x="234.651" y="41.4091" width="5.01928" height="5.01928" fill="#F3CCAE"/>
<rect x="229.632" y="46.4283" width="5.01928" height="5.01928" fill="#F3CCAE"/>
<rect x="224.613" y="51.4476" width="5.01928" height="5.01928" fill="#F3CCAE"/>
</svg>
