<svg width="253" height="81" viewBox="0 0 253 81" fill="none" xmlns="http://www.w3.org/2000/svg">
<path d="M69.6757 80.1267L130.784 72.2516L229.892 72.2516L253 59.8763L253 17.1253L229.892 7.00006L136.946 13.3752L73.7838 7.00006L11.1351 20.1254L6 72.2516L36.8108 80.1267L69.6757 80.1267Z" fill="#398839"/>
<path d="M63.6757 73.1267L124.784 65.2515L223.892 65.2515L247 52.8762L247 10.1252L223.892 7.20121e-07L130.946 6.37515L67.7838 2.18018e-07L5.13514 13.1253L2.87388e-07 65.2515L30.8108 73.1267L63.6757 73.1267Z" fill="#5DD85D"/>
<path d="M58.6059 48.56C56.3775 48.56 54.4292 48.0933 52.7609 47.16C51.1042 46.215 49.815 44.8267 48.8934 42.995C47.9717 41.1517 47.5109 38.8825 47.5109 36.1875C47.5109 33.4225 47.9717 31.1417 48.8934 29.345C49.815 27.5367 51.1042 26.195 52.7609 25.32C54.4292 24.4333 56.3775 23.99 58.6059 23.99C60.8575 23.99 62.8175 24.4508 64.4859 25.3725C66.1659 26.2942 67.4667 27.6592 68.3884 29.4675C69.31 31.2758 69.7709 33.5158 69.7709 36.1875C69.7709 38.9292 69.31 41.2217 68.3884 43.065C67.4667 44.8967 66.1659 46.2733 64.4859 47.195C62.8175 48.105 60.8575 48.56 58.6059 48.56ZM58.6059 43.5375C60.2392 43.5375 61.5459 42.8958 62.5259 41.6125C63.5059 40.3175 63.9959 38.4975 63.9959 36.1525C63.9959 33.9475 63.5059 32.2092 62.5259 30.9375C61.5459 29.6542 60.2392 29.0125 58.6059 29.0125C57.0192 29.0125 55.7359 29.6542 54.7559 30.9375C53.7759 32.2092 53.2859 33.9592 53.2859 36.1875C53.2859 38.5092 53.7759 40.3175 54.7559 41.6125C55.7359 42.8958 57.0192 43.5375 58.6059 43.5375ZM74.0821 48L74.0821 24.515L83.0946 24.515C85.8013 24.515 87.948 25.1683 89.5346 26.475C91.1213 27.77 91.9146 29.6892 91.9146 32.2325C91.9146 34.7642 91.1213 36.6892 89.5346 38.0075C87.948 39.3142 85.8013 39.9675 83.0946 39.9675L79.7171 39.9675L79.7171 48L74.0821 48ZM79.7171 35.0675L83.0946 35.0675C84.1096 35.0675 84.8738 34.7875 85.3871 34.2275C85.9121 33.6558 86.1746 32.9908 86.1746 32.2325C86.1746 31.4625 85.9121 30.7917 85.3871 30.22C84.8738 29.6483 84.1096 29.3625 83.0946 29.3625L79.7171 29.3625L79.7171 35.0675ZM92.8028 29.3625L92.8028 24.515L112.14 24.515L112.14 29.3625L104.038 29.3625L105.298 28.1025L105.298 48L99.6978 48L99.6978 28.1025L100.958 29.3625L92.8028 29.3625ZM115.306 48L115.306 24.515L120.906 24.515L120.906 48L115.306 48ZM136.501 48.56C134.273 48.56 132.325 48.0933 130.656 47.16C129 46.215 127.711 44.8267 126.789 42.995C125.867 41.1517 125.406 38.8825 125.406 36.1875C125.406 33.4225 125.867 31.1417 126.789 29.345C127.711 27.5367 129 26.195 130.656 25.32C132.325 24.4333 134.273 23.99 136.501 23.99C138.753 23.99 140.713 24.4508 142.381 25.3725C144.061 26.2942 145.362 27.6592 146.284 29.4675C147.206 31.2758 147.666 33.5158 147.666 36.1875C147.666 38.9292 147.206 41.2217 146.284 43.065C145.362 44.8967 144.061 46.2733 142.381 47.195C140.713 48.105 138.753 48.56 136.501 48.56ZM136.501 43.5375C138.135 43.5375 139.441 42.8958 140.421 41.6125C141.401 40.3175 141.891 38.4975 141.891 36.1525C141.891 33.9475 141.401 32.2092 140.421 30.9375C139.441 29.6542 138.135 29.0125 136.501 29.0125C134.915 29.0125 133.631 29.6542 132.651 30.9375C131.671 32.2092 131.181 33.9592 131.181 36.1875C131.181 38.5092 131.671 40.3175 132.651 41.6125C133.631 42.8958 134.915 43.5375 136.501 43.5375ZM152.013 24.515L157.858 24.515L167.29 38.725L166.905 38.725L166.905 24.515L172.505 24.515L172.505 48L167.098 48L156.685 32.39L157.613 32.39L157.613 48L152.013 48L152.013 24.515ZM187.274 48.56C185.594 48.56 184.036 48.28 182.601 47.72C181.166 47.1483 179.999 46.2617 179.101 45.06C178.203 43.8467 177.707 42.2717 177.614 40.335L183.144 40.335C183.144 41.0467 183.324 41.6358 183.686 42.1025C184.048 42.5692 184.538 42.9133 185.156 43.135C185.786 43.3567 186.48 43.4675 187.239 43.4675C187.845 43.4675 188.411 43.415 188.936 43.31C189.473 43.205 189.904 43.0183 190.231 42.75C190.558 42.4817 190.721 42.1142 190.721 41.6475C190.721 41.0758 190.546 40.65 190.196 40.37C189.858 40.09 189.239 39.7692 188.341 39.4075L183.231 37.185C181.551 36.4617 180.244 35.61 179.311 34.63C178.378 33.65 177.911 32.3142 177.911 30.6225C177.911 28.6392 178.716 27.0408 180.326 25.8275C181.948 24.6025 184.164 23.99 186.976 23.99C189.834 23.99 192.028 24.6667 193.556 26.02C195.084 27.3617 195.942 29.2808 196.129 31.7775L190.634 31.7775C190.494 31.0075 190.149 30.36 189.601 29.835C189.064 29.31 188.189 29.0475 186.976 29.0475C186.101 29.0475 185.395 29.2108 184.859 29.5375C184.322 29.8525 184.054 30.2492 184.054 30.7275C184.054 31.1708 184.223 31.5208 184.561 31.7775C184.911 32.0342 185.43 32.3142 186.119 32.6175L191.526 34.91C193.323 35.6917 194.659 36.6075 195.534 37.6575C196.42 38.7075 196.864 39.9675 196.864 41.4375C196.864 43.0125 196.484 44.3308 195.726 45.3925C194.979 46.4425 193.889 47.2358 192.454 47.7725C191.03 48.2975 189.304 48.56 187.274 48.56Z" fill="#233739"/>
<rect x="235.059" y="31.4249" width="5.02799" height="5.02799" fill="#BCFABC"/>
<rect x="235.059" y="36.4529" width="5.02799" height="5.02799" fill="#BCFABC"/>
<rect x="235.059" y="41.4809" width="5.02799" height="5.02799" fill="#BCFABC"/>
<rect x="230.031" y="46.5089" width="5.02799" height="5.02799" fill="#BCFABC"/>
<rect x="225.003" y="51.5369" width="5.02799" height="5.02799" fill="#BCFABC"/>
</svg>
