<svg width="97" height="79" viewBox="0 0 97 79" fill="none" xmlns="http://www.w3.org/2000/svg">
<path d="M83.4462 79H23.2678C18.3451 74.3693 15.3998 71.5908 10.483 66.9601L7 18.8487L12.1558 12.4443L76.5937 4C82.2394 8.50969 85.34 10.9855 90.9857 15.4952L96.1892 64.6174C91.0932 70.362 88.5362 73.2494 83.4402 78.994L83.4462 79Z" fill="#9D5723"/>
<path d="M76.4462 75H16.2678C11.3451 70.3693 8.39976 67.5908 3.48297 62.9601L0 14.8487L5.15576 8.44431L69.5937 0C75.2394 4.50969 78.34 6.98547 83.9857 11.4952L89.1892 60.6174C84.0932 66.362 81.5362 69.2494 76.4402 74.994L76.4462 75Z" fill="#EC883D"/>
<rect x="67" y="66" width="5" height="5" fill="#FED5B7"/>
<rect x="77" y="56" width="5" height="5" fill="#FED5B7"/>
<rect x="77" y="52" width="5" height="4" fill="#FED5B7"/>
<rect x="77" y="46" width="5" height="6" fill="#FED5B7"/>
<rect x="72" y="61" width="5" height="5" fill="#FED5B7"/>
</svg>
