<svg width="100" height="85" viewBox="0 0 100 85" fill="none" xmlns="http://www.w3.org/2000/svg">
<path d="M86.4268 84.8865H22.3277C17.0842 79.954 13.947 76.9946 8.70989 72.0621L5 20.8162L10.4917 13.9946L79.1279 5.00012C85.1413 9.80362 88.444 12.4407 94.4574 17.2442L100 69.5669C94.572 75.6857 91.8484 78.7612 86.4204 84.88L86.4268 84.8865Z" fill="#398839"/>
<path d="M89.4567 12.2317C83.4417 7.432 80.1399 4.79975 74.1291 0L5.49321 8.98262C3.37273 11.6149 2.12048 13.1655 0 15.7978L3.70667 66.9894C8.94943 71.9201 12.0842 74.8735 17.327 79.8H81.4214C86.8478 73.6862 89.5736 70.6146 95 64.5008L89.4567 12.2317ZM69.1994 37.3459L67.7009 51.4663L68.974 53.7014L63.2888 63.6685H51.9225L46.2373 53.7014L51.9225 43.7343H61.6108L62.3955 36.3319L64.2197 24.7888H44.6803L42.0798 27.4211V38.6134L36.7077 49.8481L41.1031 57.5547L35.1298 68.0246H23.1875L17.2143 57.5547L23.1875 47.0848H30.388L35.2008 37.0163V24.5395L41.8294 17.83H72.2758L69.1911 37.3417L69.1994 37.3459Z" fill="#5DD85D"/>
<rect x="73" y="70" width="5" height="5" fill="#BCFABC"/>
<rect x="83" y="60" width="5" height="5" fill="#BCFABC"/>
<rect x="83" y="55" width="5" height="5" fill="#BCFABC"/>
<rect x="83" y="50" width="5" height="5" fill="#BCFABC"/>
<rect x="78" y="65" width="5" height="5" fill="#BCFABC"/>
<rect x="17" y="9" width="56" height="61" fill="#5DD85D"/>
<path d="M52.3956 22.6481H37.5981L28.8565 20.9558L24.5704 24.4586V41.2382L31.1596 54.6022L43.6477 64.2332H46.3524L58.8342 54.6022L65.4296 41.2382V24.4586L61.1372 20.9558L52.3956 22.6481Z" fill="#233739"/>
<path d="M65.6179 14L54.1464 16.2149H35.8536L24.3821 14C21.7778 16.1278 20.598 17.0921 18 19.2137V41.2195C20.9997 47.3042 23.5475 52.4681 26.5471 58.5529L42.8318 71.1205H47.1682L63.4529 58.5529C66.4525 52.4681 69.0003 47.3042 72 41.2195V19.2137C69.3957 17.0859 68.2159 16.1216 65.6179 14ZM67.626 41.7421L60.585 56.0145L47.0991 66.417H42.8883L29.4024 56.0145L22.3614 41.7421V23.4319L28.254 18.6226L37.8052 20.4705H52.1759L61.7271 18.6226L67.6197 23.4319V41.7421H67.626Z" fill="#233739"/>
</svg>
