<svg width="100" height="85" viewBox="0 0 100 85" fill="none" xmlns="http://www.w3.org/2000/svg">
<path d="M86.4268 84.8865H22.3277C17.0842 79.954 13.947 76.9946 8.70989 72.0621L5 20.8162L10.4917 13.9946L79.1279 5.00012C85.1413 9.80362 88.444 12.4407 94.4574 17.2442L100 69.5669C94.572 75.6857 91.8484 78.7612 86.4204 84.88L86.4268 84.8865Z" fill="#9D5723"/>
<g clip-path="url(#clip0_41_501)">
<path d="M89.4567 12.2318C83.4417 7.43206 80.1399 4.79981 74.1291 6.10352e-05L5.49321 8.98268C3.37273 11.6149 2.12048 13.1656 0 15.7978L3.70667 66.9895C8.94943 71.9202 12.0842 74.8736 17.327 79.8001H81.4214C86.8478 73.6863 89.5736 70.6146 95 64.5009L89.4567 12.2318ZM69.1994 37.346L67.7009 51.4663L68.974 53.7014L63.2888 63.6685H51.9225L46.2373 53.7014L51.9225 43.7344H61.6108L62.3955 36.3319L64.2197 24.7889H44.6803L42.0798 27.4211V38.6135L36.7077 49.8481L41.1031 57.5548L35.1298 68.0246H23.1875L17.2143 57.5548L23.1875 47.0849H30.388L35.2008 37.0164V24.5396L41.8294 17.8301H72.2758L69.1911 37.3417L69.1994 37.346Z" fill="#EC883D"/>
<rect x="73" y="70.0001" width="5" height="5" fill="#FED5B7"/>
<rect x="83" y="60.0001" width="5" height="5" fill="#FED5B7"/>
<rect x="83" y="55.0001" width="5" height="5" fill="#FED5B7"/>
<rect x="83" y="50.0001" width="5" height="5" fill="#FED5B7"/>
<rect x="78" y="65.0001" width="5" height="5" fill="#FED5B7"/>
<rect x="17" y="9.00012" width="56" height="61" fill="#EC883D"/>
<path d="M23.7623 30.3538H17.9392C16.3709 31.9245 15.4885 32.8083 13.9203 34.379V46.0435C15.4885 47.6142 16.3709 48.498 17.9392 50.0687H23.7623L40.5458 61.1251C41.8564 60.4163 42.1359 60.2675 43.4508 59.5587V20.8638C42.1403 20.155 41.8607 20.0063 40.5458 19.2975L23.7623 30.3538Z" fill="#233739"/>
<path d="M49.1429 30.8831L51.3577 34.7246V45.6977L49.1429 49.5349L51.6242 50.9699L54.2234 46.4634V33.9545L51.6242 29.448L49.1429 30.8831Z" fill="#233739"/>
<path d="M64.3538 33.9547L57.4167 21.9183L54.9355 23.3534L61.4925 34.7247V45.6979L54.9355 57.0692L57.4167 58.5043L64.3538 46.4636V33.9547Z" fill="#233739"/>
<path d="M66.0313 16.6636L63.55 18.0987L73.1343 34.7247V45.6979L63.55 62.3239L66.0313 63.759L76 46.4636V33.9547L66.0313 16.6636Z" fill="#233739"/>
</g>
<defs>
<clipPath id="clip0_41_501">
<rect width="95" height="79.8" fill="white"/>
</clipPath>
</defs>
</svg>
